<mxfile host="Electron" modified="2024-06-20T17:07:34.602Z" agent="Mozilla/5.0 (Windows NT 10.0; Win64; x64) AppleWebKit/537.36 (KHTML, like Gecko) draw.io/24.5.3 Chrome/124.0.6367.207 Electron/30.0.6 Safari/537.36" etag="QLGoIA9dI5giV3-aOu4o" version="24.5.3" type="device" pages="2">
  <diagram id="C5RBs43oDa-KdzZeNtuy" name="packages">
    <mxGraphModel dx="1434" dy="886" grid="1" gridSize="10" guides="1" tooltips="1" connect="1" arrows="1" fold="1" page="1" pageScale="1" pageWidth="827" pageHeight="1169" math="0" shadow="0">
      <root>
        <mxCell id="WIyWlLk6GJQsqaUBKTNV-0" />
        <mxCell id="WIyWlLk6GJQsqaUBKTNV-1" parent="WIyWlLk6GJQsqaUBKTNV-0" />
        <mxCell id="cC4g4Cpb8kImu8PYNSKq-15" value="bank" style="shape=folder;fontStyle=1;tabWidth=110;tabHeight=30;tabPosition=left;html=1;boundedLbl=1;labelInHeader=1;container=1;collapsible=0;whiteSpace=wrap;" parent="WIyWlLk6GJQsqaUBKTNV-1" vertex="1">
          <mxGeometry x="190" y="160" width="500" height="350" as="geometry" />
        </mxCell>
        <mxCell id="cC4g4Cpb8kImu8PYNSKq-16" value="" style="html=1;strokeColor=none;resizeWidth=1;resizeHeight=1;fillColor=none;part=1;connectable=0;allowArrows=0;deletable=0;whiteSpace=wrap;" parent="cC4g4Cpb8kImu8PYNSKq-15" vertex="1">
          <mxGeometry width="500" height="245.00000000000003" relative="1" as="geometry">
            <mxPoint y="30" as="offset" />
          </mxGeometry>
        </mxCell>
        <mxCell id="cC4g4Cpb8kImu8PYNSKq-3" value="database" style="shape=folder;fontStyle=1;spacingTop=10;tabWidth=40;tabHeight=14;tabPosition=left;html=1;whiteSpace=wrap;" parent="cC4g4Cpb8kImu8PYNSKq-15" vertex="1">
          <mxGeometry x="215" y="40" width="70" height="50" as="geometry" />
        </mxCell>
        <mxCell id="cC4g4Cpb8kImu8PYNSKq-6" value="exception" style="shape=folder;fontStyle=1;spacingTop=10;tabWidth=40;tabHeight=14;tabPosition=left;html=1;whiteSpace=wrap;" parent="cC4g4Cpb8kImu8PYNSKq-15" vertex="1">
          <mxGeometry x="380" y="160" width="70" height="50" as="geometry" />
        </mxCell>
        <mxCell id="cC4g4Cpb8kImu8PYNSKq-5" value="ent&lt;span style=&quot;color: rgba(0, 0, 0, 0); font-family: monospace; font-size: 0px; font-weight: 400; text-align: start; text-wrap: nowrap;&quot;&gt;%3CmxGraphModel%3E%3Croot%3E%3CmxCell%20id%3D%220%22%2F%3E%3CmxCell%20id%3D%221%22%20parent%3D%220%22%2F%3E%3CmxCell%20id%3D%222%22%20value%3D%22dao%22%20style%3D%22shape%3Dfolder%3BfontStyle%3D1%3BspacingTop%3D10%3BtabWidth%3D40%3BtabHeight%3D14%3BtabPosition%3Dleft%3Bhtml%3D1%3BwhiteSpace%3Dwrap%3B%22%20vertex%3D%221%22%20parent%3D%221%22%3E%3CmxGeometry%20x%3D%22470%22%20y%3D%22560%22%20width%3D%2270%22%20height%3D%2250%22%20as%3D%22geometry%22%2F%3E%3C%2FmxCell%3E%3C%2Froot%3E%3C%2FmxGraphModel%3E&lt;/span&gt;&lt;span style=&quot;color: rgba(0, 0, 0, 0); font-family: monospace; font-size: 0px; font-weight: 400; text-align: start; text-wrap: nowrap;&quot;&gt;%3CmxGraphModel%3E%3Croot%3E%3CmxCell%20id%3D%220%22%2F%3E%3CmxCell%20id%3D%221%22%20parent%3D%220%22%2F%3E%3CmxCell%20id%3D%222%22%20value%3D%22dao%22%20style%3D%22shape%3Dfolder%3BfontStyle%3D1%3BspacingTop%3D10%3BtabWidth%3D40%3BtabHeight%3D14%3BtabPosition%3Dleft%3Bhtml%3D1%3BwhiteSpace%3Dwrap%3B%22%20vertex%3D%221%22%20parent%3D%221%22%3E%3CmxGeometry%20x%3D%22470%22%20y%3D%22560%22%20width%3D%2270%22%20height%3D%2250%22%20as%3D%22geometry%22%2F%3E%3C%2FmxCell%3E%3C%2Froot%3E%3C%2FmxGraphModel%3E&lt;/span&gt;ity" style="shape=folder;fontStyle=1;spacingTop=10;tabWidth=40;tabHeight=14;tabPosition=left;html=1;whiteSpace=wrap;" parent="cC4g4Cpb8kImu8PYNSKq-15" vertex="1">
          <mxGeometry x="50" y="160" width="70" height="50" as="geometry" />
        </mxCell>
        <mxCell id="cC4g4Cpb8kImu8PYNSKq-4" value="dao" style="shape=folder;fontStyle=1;spacingTop=10;tabWidth=40;tabHeight=14;tabPosition=left;html=1;whiteSpace=wrap;" parent="cC4g4Cpb8kImu8PYNSKq-15" vertex="1">
          <mxGeometry x="215" y="120" width="70" height="50" as="geometry" />
        </mxCell>
        <mxCell id="cC4g4Cpb8kImu8PYNSKq-7" value="service" style="shape=folder;fontStyle=1;spacingTop=10;tabWidth=40;tabHeight=14;tabPosition=left;html=1;whiteSpace=wrap;" parent="cC4g4Cpb8kImu8PYNSKq-15" vertex="1">
          <mxGeometry x="215" y="200" width="70" height="50" as="geometry" />
        </mxCell>
        <mxCell id="cC4g4Cpb8kImu8PYNSKq-8" value="view" style="shape=folder;fontStyle=1;spacingTop=10;tabWidth=40;tabHeight=14;tabPosition=left;html=1;whiteSpace=wrap;" parent="cC4g4Cpb8kImu8PYNSKq-15" vertex="1">
          <mxGeometry x="215" y="280" width="70" height="50" as="geometry" />
        </mxCell>
        <mxCell id="cC4g4Cpb8kImu8PYNSKq-43" style="edgeStyle=orthogonalEdgeStyle;rounded=0;orthogonalLoop=1;jettySize=auto;html=1;exitX=0;exitY=0;exitDx=70;exitDy=32;exitPerimeter=0;entryX=0;entryY=0;entryDx=0;entryDy=32;entryPerimeter=0;fontSize=12;startSize=8;endSize=8;endArrow=none;endFill=0;startArrow=open;startFill=0;dashed=1;" parent="cC4g4Cpb8kImu8PYNSKq-15" source="cC4g4Cpb8kImu8PYNSKq-5" target="cC4g4Cpb8kImu8PYNSKq-3" edge="1">
          <mxGeometry relative="1" as="geometry" />
        </mxCell>
        <mxCell id="cC4g4Cpb8kImu8PYNSKq-44" style="edgeStyle=orthogonalEdgeStyle;rounded=0;orthogonalLoop=1;jettySize=auto;html=1;exitX=0;exitY=0;exitDx=70;exitDy=32;exitPerimeter=0;entryX=0;entryY=0;entryDx=0;entryDy=32;entryPerimeter=0;fontSize=12;startSize=8;endSize=8;endArrow=none;endFill=0;startArrow=open;startFill=0;dashed=1;" parent="cC4g4Cpb8kImu8PYNSKq-15" source="cC4g4Cpb8kImu8PYNSKq-5" target="cC4g4Cpb8kImu8PYNSKq-4" edge="1">
          <mxGeometry relative="1" as="geometry" />
        </mxCell>
        <mxCell id="cC4g4Cpb8kImu8PYNSKq-45" style="edgeStyle=orthogonalEdgeStyle;rounded=0;orthogonalLoop=1;jettySize=auto;html=1;exitX=0;exitY=0;exitDx=70;exitDy=32;exitPerimeter=0;entryX=0;entryY=0;entryDx=0;entryDy=32;entryPerimeter=0;fontSize=12;startSize=8;endSize=8;endArrow=none;endFill=0;startArrow=open;startFill=0;dashed=1;" parent="cC4g4Cpb8kImu8PYNSKq-15" source="cC4g4Cpb8kImu8PYNSKq-5" target="cC4g4Cpb8kImu8PYNSKq-7" edge="1">
          <mxGeometry relative="1" as="geometry" />
        </mxCell>
        <mxCell id="cC4g4Cpb8kImu8PYNSKq-46" style="edgeStyle=orthogonalEdgeStyle;rounded=0;orthogonalLoop=1;jettySize=auto;html=1;exitX=0;exitY=0;exitDx=70;exitDy=32;exitPerimeter=0;entryX=0;entryY=0;entryDx=0;entryDy=32;entryPerimeter=0;fontSize=12;startSize=8;endSize=8;endArrow=none;endFill=0;startArrow=open;startFill=0;dashed=1;" parent="cC4g4Cpb8kImu8PYNSKq-15" source="cC4g4Cpb8kImu8PYNSKq-5" target="cC4g4Cpb8kImu8PYNSKq-8" edge="1">
          <mxGeometry relative="1" as="geometry" />
        </mxCell>
        <mxCell id="cC4g4Cpb8kImu8PYNSKq-47" style="edgeStyle=orthogonalEdgeStyle;rounded=0;orthogonalLoop=1;jettySize=auto;html=1;exitX=0;exitY=0;exitDx=0;exitDy=32;exitPerimeter=0;entryX=0;entryY=0;entryDx=70;entryDy=32;entryPerimeter=0;fontSize=12;startSize=8;endSize=8;startArrow=open;startFill=0;endArrow=none;endFill=0;dashed=1;" parent="cC4g4Cpb8kImu8PYNSKq-15" source="cC4g4Cpb8kImu8PYNSKq-6" target="cC4g4Cpb8kImu8PYNSKq-3" edge="1">
          <mxGeometry relative="1" as="geometry" />
        </mxCell>
        <mxCell id="cC4g4Cpb8kImu8PYNSKq-48" style="edgeStyle=orthogonalEdgeStyle;rounded=0;orthogonalLoop=1;jettySize=auto;html=1;exitX=0;exitY=0;exitDx=0;exitDy=32;exitPerimeter=0;entryX=0;entryY=0;entryDx=70;entryDy=32;entryPerimeter=0;fontSize=12;startSize=8;endSize=8;startArrow=open;startFill=0;endArrow=none;endFill=0;dashed=1;" parent="cC4g4Cpb8kImu8PYNSKq-15" source="cC4g4Cpb8kImu8PYNSKq-6" target="cC4g4Cpb8kImu8PYNSKq-4" edge="1">
          <mxGeometry relative="1" as="geometry" />
        </mxCell>
        <mxCell id="cC4g4Cpb8kImu8PYNSKq-49" style="edgeStyle=orthogonalEdgeStyle;rounded=0;orthogonalLoop=1;jettySize=auto;html=1;exitX=0;exitY=0;exitDx=0;exitDy=32;exitPerimeter=0;entryX=0;entryY=0;entryDx=70;entryDy=32;entryPerimeter=0;fontSize=12;startSize=8;endSize=8;startArrow=open;startFill=0;endArrow=none;endFill=0;dashed=1;" parent="cC4g4Cpb8kImu8PYNSKq-15" source="cC4g4Cpb8kImu8PYNSKq-6" target="cC4g4Cpb8kImu8PYNSKq-7" edge="1">
          <mxGeometry relative="1" as="geometry" />
        </mxCell>
        <mxCell id="cC4g4Cpb8kImu8PYNSKq-50" style="edgeStyle=orthogonalEdgeStyle;rounded=0;orthogonalLoop=1;jettySize=auto;html=1;exitX=0;exitY=0;exitDx=0;exitDy=32;exitPerimeter=0;entryX=0;entryY=0;entryDx=70;entryDy=32;entryPerimeter=0;fontSize=12;startSize=8;endSize=8;startArrow=open;startFill=0;endArrow=none;endFill=0;dashed=1;" parent="cC4g4Cpb8kImu8PYNSKq-15" source="cC4g4Cpb8kImu8PYNSKq-6" target="cC4g4Cpb8kImu8PYNSKq-8" edge="1">
          <mxGeometry relative="1" as="geometry" />
        </mxCell>
        <mxCell id="cC4g4Cpb8kImu8PYNSKq-52" style="edgeStyle=orthogonalEdgeStyle;rounded=0;orthogonalLoop=1;jettySize=auto;html=1;exitX=0;exitY=0;exitDx=40;exitDy=0;exitPerimeter=0;entryX=0.568;entryY=1.008;entryDx=0;entryDy=0;entryPerimeter=0;fontSize=12;startSize=8;endSize=8;dashed=1;endArrow=open;endFill=0;" parent="cC4g4Cpb8kImu8PYNSKq-15" source="cC4g4Cpb8kImu8PYNSKq-4" target="cC4g4Cpb8kImu8PYNSKq-3" edge="1">
          <mxGeometry relative="1" as="geometry" />
        </mxCell>
        <mxCell id="cC4g4Cpb8kImu8PYNSKq-53" style="edgeStyle=orthogonalEdgeStyle;rounded=0;orthogonalLoop=1;jettySize=auto;html=1;exitX=0;exitY=0;exitDx=40;exitDy=0;exitPerimeter=0;entryX=0.578;entryY=1.008;entryDx=0;entryDy=0;entryPerimeter=0;fontSize=12;startSize=8;endSize=8;dashed=1;endArrow=open;endFill=0;" parent="cC4g4Cpb8kImu8PYNSKq-15" source="cC4g4Cpb8kImu8PYNSKq-7" target="cC4g4Cpb8kImu8PYNSKq-4" edge="1">
          <mxGeometry relative="1" as="geometry" />
        </mxCell>
        <mxCell id="cC4g4Cpb8kImu8PYNSKq-54" style="edgeStyle=orthogonalEdgeStyle;rounded=0;orthogonalLoop=1;jettySize=auto;html=1;exitX=0;exitY=0;exitDx=40;exitDy=0;exitPerimeter=0;entryX=0.574;entryY=1;entryDx=0;entryDy=0;entryPerimeter=0;fontSize=12;startSize=8;endSize=8;dashed=1;endArrow=open;endFill=0;" parent="cC4g4Cpb8kImu8PYNSKq-15" source="cC4g4Cpb8kImu8PYNSKq-8" target="cC4g4Cpb8kImu8PYNSKq-7" edge="1">
          <mxGeometry relative="1" as="geometry" />
        </mxCell>
      </root>
    </mxGraphModel>
  </diagram>
  <diagram id="-AQwE2pUH0rTruC7Cq1t" name="Final">
    <mxGraphModel dx="6727" dy="4100" grid="0" gridSize="10" guides="1" tooltips="1" connect="1" arrows="1" fold="1" page="0" pageScale="1" pageWidth="827" pageHeight="1169" math="0" shadow="0">
      <root>
        <mxCell id="0" />
        <mxCell id="1" parent="0" />
        <mxCell id="6KmHtFEhfaegatbygs95-1" value="database" style="shape=folder;fontStyle=1;tabWidth=110;tabHeight=30;tabPosition=left;html=1;boundedLbl=1;labelInHeader=1;container=1;collapsible=0;whiteSpace=wrap;recursiveResize=0;" parent="1" vertex="1">
          <mxGeometry x="-1143" y="-189" width="681" height="502" as="geometry" />
        </mxCell>
        <mxCell id="6KmHtFEhfaegatbygs95-2" value="" style="html=1;strokeColor=none;resizeWidth=1;resizeHeight=1;fillColor=none;part=1;connectable=0;allowArrows=0;deletable=0;whiteSpace=wrap;" parent="6KmHtFEhfaegatbygs95-1" vertex="1">
          <mxGeometry width="553" height="248.5" relative="1" as="geometry">
            <mxPoint y="30" as="offset" />
          </mxGeometry>
        </mxCell>
        <mxCell id="6KmHtFEhfaegatbygs95-3" value="" style="group" parent="6KmHtFEhfaegatbygs95-1" vertex="1" connectable="0">
          <mxGeometry x="15" y="127" width="199" height="180" as="geometry" />
        </mxCell>
        <mxCell id="6KmHtFEhfaegatbygs95-4" value="&lt;i&gt;&amp;lt;&amp;lt;interface&amp;gt;&amp;gt;&lt;/i&gt;&lt;div&gt;DatabaseTableI&lt;/div&gt;" style="swimlane;fontStyle=0;childLayout=stackLayout;horizontal=1;startSize=34;fillColor=none;horizontalStack=0;resizeParent=1;resizeParentMax=0;resizeLast=0;collapsible=1;marginBottom=0;whiteSpace=wrap;html=1;" parent="6KmHtFEhfaegatbygs95-3" vertex="1">
          <mxGeometry y="16" width="173" height="164" as="geometry" />
        </mxCell>
        <mxCell id="6KmHtFEhfaegatbygs95-5" value="+ save(entity: T)" style="text;strokeColor=none;fillColor=none;align=left;verticalAlign=top;spacingLeft=4;spacingRight=4;overflow=hidden;rotatable=0;points=[[0,0.5],[1,0.5]];portConstraint=eastwest;whiteSpace=wrap;html=1;" parent="6KmHtFEhfaegatbygs95-4" vertex="1">
          <mxGeometry y="34" width="173" height="26" as="geometry" />
        </mxCell>
        <mxCell id="6KmHtFEhfaegatbygs95-6" value="+ findById(id: Integer): T" style="text;strokeColor=none;fillColor=none;align=left;verticalAlign=top;spacingLeft=4;spacingRight=4;overflow=hidden;rotatable=0;points=[[0,0.5],[1,0.5]];portConstraint=eastwest;whiteSpace=wrap;html=1;" parent="6KmHtFEhfaegatbygs95-4" vertex="1">
          <mxGeometry y="60" width="173" height="26" as="geometry" />
        </mxCell>
        <mxCell id="6KmHtFEhfaegatbygs95-7" value="+ findAll(): List&amp;lt;T&amp;gt;" style="text;strokeColor=none;fillColor=none;align=left;verticalAlign=top;spacingLeft=4;spacingRight=4;overflow=hidden;rotatable=0;points=[[0,0.5],[1,0.5]];portConstraint=eastwest;whiteSpace=wrap;html=1;" parent="6KmHtFEhfaegatbygs95-4" vertex="1">
          <mxGeometry y="86" width="173" height="26" as="geometry" />
        </mxCell>
        <mxCell id="6KmHtFEhfaegatbygs95-8" value="+ update(id: Integer, entity: T)" style="text;strokeColor=none;fillColor=none;align=left;verticalAlign=top;spacingLeft=4;spacingRight=4;overflow=hidden;rotatable=0;points=[[0,0.5],[1,0.5]];portConstraint=eastwest;whiteSpace=wrap;html=1;" parent="6KmHtFEhfaegatbygs95-4" vertex="1">
          <mxGeometry y="112" width="173" height="26" as="geometry" />
        </mxCell>
        <mxCell id="6KmHtFEhfaegatbygs95-9" value="+ delete(id: Integer)" style="text;strokeColor=none;fillColor=none;align=left;verticalAlign=top;spacingLeft=4;spacingRight=4;overflow=hidden;rotatable=0;points=[[0,0.5],[1,0.5]];portConstraint=eastwest;whiteSpace=wrap;html=1;" parent="6KmHtFEhfaegatbygs95-4" vertex="1">
          <mxGeometry y="138" width="173" height="26" as="geometry" />
        </mxCell>
        <mxCell id="6KmHtFEhfaegatbygs95-10" value="T extends Entity" style="shape=partialRectangle;html=1;top=1;align=left;dashed=1;" parent="6KmHtFEhfaegatbygs95-3" vertex="1">
          <mxGeometry x="86" width="93" height="20" as="geometry" />
        </mxCell>
        <mxCell id="6KmHtFEhfaegatbygs95-11" value="" style="group" parent="6KmHtFEhfaegatbygs95-1" vertex="1" connectable="0">
          <mxGeometry x="22" y="362" width="201" height="99" as="geometry" />
        </mxCell>
        <mxCell id="6KmHtFEhfaegatbygs95-12" value="DatabaseTable" style="swimlane;fontStyle=1;align=center;verticalAlign=top;childLayout=stackLayout;horizontal=1;startSize=26;horizontalStack=0;resizeParent=1;resizeParentMax=0;resizeLast=0;collapsible=1;marginBottom=0;whiteSpace=wrap;html=1;" parent="6KmHtFEhfaegatbygs95-11" vertex="1">
          <mxGeometry y="13" width="160" height="60" as="geometry" />
        </mxCell>
        <mxCell id="6KmHtFEhfaegatbygs95-13" value="- entities: Map&amp;lt;Integer, T&amp;gt;" style="text;strokeColor=none;fillColor=none;align=left;verticalAlign=top;spacingLeft=4;spacingRight=4;overflow=hidden;rotatable=0;points=[[0,0.5],[1,0.5]];portConstraint=eastwest;whiteSpace=wrap;html=1;" parent="6KmHtFEhfaegatbygs95-12" vertex="1">
          <mxGeometry y="26" width="160" height="26" as="geometry" />
        </mxCell>
        <mxCell id="6KmHtFEhfaegatbygs95-14" value="" style="line;strokeWidth=1;fillColor=none;align=left;verticalAlign=middle;spacingTop=-1;spacingLeft=3;spacingRight=3;rotatable=0;labelPosition=right;points=[];portConstraint=eastwest;strokeColor=inherit;" parent="6KmHtFEhfaegatbygs95-12" vertex="1">
          <mxGeometry y="52" width="160" height="8" as="geometry" />
        </mxCell>
        <mxCell id="6KmHtFEhfaegatbygs95-15" value="T extends Entity" style="shape=partialRectangle;html=1;top=1;align=left;dashed=1;" parent="6KmHtFEhfaegatbygs95-11" vertex="1">
          <mxGeometry x="87" width="92" height="20" as="geometry" />
        </mxCell>
        <mxCell id="6KmHtFEhfaegatbygs95-16" value="Database" style="swimlane;fontStyle=1;align=center;verticalAlign=top;childLayout=stackLayout;horizontal=1;startSize=26;horizontalStack=0;resizeParent=1;resizeParentMax=0;resizeLast=0;collapsible=1;marginBottom=0;whiteSpace=wrap;html=1;" parent="6KmHtFEhfaegatbygs95-1" vertex="1">
          <mxGeometry x="371" y="91" width="245" height="216" as="geometry">
            <mxRectangle x="510" y="372" width="86" height="26" as="alternateBounds" />
          </mxGeometry>
        </mxCell>
        <mxCell id="6KmHtFEhfaegatbygs95-17" value="" style="line;strokeWidth=1;fillColor=none;align=left;verticalAlign=middle;spacingTop=-1;spacingLeft=3;spacingRight=3;rotatable=0;labelPosition=right;points=[];portConstraint=eastwest;strokeColor=inherit;" parent="6KmHtFEhfaegatbygs95-16" vertex="1">
          <mxGeometry y="26" width="245" height="8" as="geometry" />
        </mxCell>
        <mxCell id="6KmHtFEhfaegatbygs95-51" value="- checkClass(clazz: Class)" style="text;strokeColor=none;fillColor=none;align=left;verticalAlign=top;spacingLeft=4;spacingRight=4;overflow=hidden;rotatable=0;points=[[0,0.5],[1,0.5]];portConstraint=eastwest;whiteSpace=wrap;html=1;fontStyle=0" parent="6KmHtFEhfaegatbygs95-16" vertex="1">
          <mxGeometry y="34" width="245" height="26" as="geometry" />
        </mxCell>
        <mxCell id="6KmHtFEhfaegatbygs95-50" value="+ getInstance(): Database" style="text;strokeColor=none;fillColor=none;align=left;verticalAlign=top;spacingLeft=4;spacingRight=4;overflow=hidden;rotatable=0;points=[[0,0.5],[1,0.5]];portConstraint=eastwest;whiteSpace=wrap;html=1;fontStyle=4" parent="6KmHtFEhfaegatbygs95-16" vertex="1">
          <mxGeometry y="60" width="245" height="26" as="geometry" />
        </mxCell>
        <mxCell id="6KmHtFEhfaegatbygs95-18" value="+ save(clazz: Class, entity: T)" style="text;strokeColor=none;fillColor=none;align=left;verticalAlign=top;spacingLeft=4;spacingRight=4;overflow=hidden;rotatable=0;points=[[0,0.5],[1,0.5]];portConstraint=eastwest;whiteSpace=wrap;html=1;" parent="6KmHtFEhfaegatbygs95-16" vertex="1">
          <mxGeometry y="86" width="245" height="26" as="geometry" />
        </mxCell>
        <mxCell id="6KmHtFEhfaegatbygs95-19" style="edgeStyle=orthogonalEdgeStyle;rounded=0;orthogonalLoop=1;jettySize=auto;html=1;exitX=1;exitY=0.5;exitDx=0;exitDy=0;entryX=0.5;entryY=0;entryDx=0;entryDy=0;fontSize=12;startSize=8;endSize=8;startArrow=diamondThin;startFill=1;endArrow=none;endFill=0;" parent="6KmHtFEhfaegatbygs95-16" source="6KmHtFEhfaegatbygs95-50" target="6KmHtFEhfaegatbygs95-16" edge="1">
          <mxGeometry relative="1" as="geometry">
            <Array as="points">
              <mxPoint x="265" y="73" />
              <mxPoint x="265" y="-35" />
              <mxPoint x="123" y="-35" />
            </Array>
          </mxGeometry>
        </mxCell>
        <mxCell id="6KmHtFEhfaegatbygs95-20" value="1" style="edgeLabel;html=1;align=center;verticalAlign=middle;resizable=0;points=[];fontSize=12;" parent="6KmHtFEhfaegatbygs95-19" vertex="1" connectable="0">
          <mxGeometry x="-0.8918" y="2" relative="1" as="geometry">
            <mxPoint y="11" as="offset" />
          </mxGeometry>
        </mxCell>
        <mxCell id="6KmHtFEhfaegatbygs95-21" value="1" style="edgeLabel;html=1;align=center;verticalAlign=middle;resizable=0;points=[];fontSize=12;" parent="6KmHtFEhfaegatbygs95-19" vertex="1" connectable="0">
          <mxGeometry x="0.9457" y="1" relative="1" as="geometry">
            <mxPoint x="5" y="-2" as="offset" />
          </mxGeometry>
        </mxCell>
        <mxCell id="6KmHtFEhfaegatbygs95-22" value="- databaseInstance" style="edgeLabel;html=1;align=center;verticalAlign=middle;resizable=0;points=[];fontSize=12;fontStyle=4" parent="6KmHtFEhfaegatbygs95-19" vertex="1" connectable="0">
          <mxGeometry x="0.7057" y="-1" relative="1" as="geometry">
            <mxPoint x="60" y="-8" as="offset" />
          </mxGeometry>
        </mxCell>
        <mxCell id="6KmHtFEhfaegatbygs95-23" value="+ findById(clazz: Class, id: Integer): T" style="text;strokeColor=none;fillColor=none;align=left;verticalAlign=top;spacingLeft=4;spacingRight=4;overflow=hidden;rotatable=0;points=[[0,0.5],[1,0.5]];portConstraint=eastwest;whiteSpace=wrap;html=1;" parent="6KmHtFEhfaegatbygs95-16" vertex="1">
          <mxGeometry y="112" width="245" height="26" as="geometry" />
        </mxCell>
        <mxCell id="6KmHtFEhfaegatbygs95-24" value="+ findAll(clazz: Class): List&amp;lt;T&amp;gt;" style="text;strokeColor=none;fillColor=none;align=left;verticalAlign=top;spacingLeft=4;spacingRight=4;overflow=hidden;rotatable=0;points=[[0,0.5],[1,0.5]];portConstraint=eastwest;whiteSpace=wrap;html=1;" parent="6KmHtFEhfaegatbygs95-16" vertex="1">
          <mxGeometry y="138" width="245" height="26" as="geometry" />
        </mxCell>
        <mxCell id="6KmHtFEhfaegatbygs95-25" value="+ update(clazz: Class, id: Integer, entity: T)" style="text;strokeColor=none;fillColor=none;align=left;verticalAlign=top;spacingLeft=4;spacingRight=4;overflow=hidden;rotatable=0;points=[[0,0.5],[1,0.5]];portConstraint=eastwest;whiteSpace=wrap;html=1;" parent="6KmHtFEhfaegatbygs95-16" vertex="1">
          <mxGeometry y="164" width="245" height="26" as="geometry" />
        </mxCell>
        <mxCell id="6KmHtFEhfaegatbygs95-26" value="+ delete(clazz: Class, id: Integer)" style="text;strokeColor=none;fillColor=none;align=left;verticalAlign=top;spacingLeft=4;spacingRight=4;overflow=hidden;rotatable=0;points=[[0,0.5],[1,0.5]];portConstraint=eastwest;whiteSpace=wrap;html=1;" parent="6KmHtFEhfaegatbygs95-16" vertex="1">
          <mxGeometry y="190" width="245" height="26" as="geometry" />
        </mxCell>
        <mxCell id="6KmHtFEhfaegatbygs95-27" style="edgeStyle=none;curved=1;rounded=0;orthogonalLoop=1;jettySize=auto;html=1;entryX=0.5;entryY=1;entryDx=0;entryDy=0;fontSize=12;startSize=8;endSize=8;startArrow=block;startFill=0;endArrow=none;endFill=0;" parent="6KmHtFEhfaegatbygs95-1" source="6KmHtFEhfaegatbygs95-12" target="6KmHtFEhfaegatbygs95-4" edge="1">
          <mxGeometry relative="1" as="geometry" />
        </mxCell>
        <mxCell id="6KmHtFEhfaegatbygs95-28" style="edgeStyle=none;curved=1;rounded=0;orthogonalLoop=1;jettySize=auto;html=1;entryX=1;entryY=0.5;entryDx=0;entryDy=0;fontSize=12;startSize=8;endSize=8;startArrow=diamondThin;startFill=1;endArrow=none;endFill=0;exitX=0;exitY=0.5;exitDx=0;exitDy=0;" parent="6KmHtFEhfaegatbygs95-1" source="6KmHtFEhfaegatbygs95-23" target="6KmHtFEhfaegatbygs95-6" edge="1">
          <mxGeometry relative="1" as="geometry" />
        </mxCell>
        <mxCell id="6KmHtFEhfaegatbygs95-29" value="1" style="edgeLabel;html=1;align=center;verticalAlign=middle;resizable=0;points=[];fontSize=12;" parent="6KmHtFEhfaegatbygs95-28" vertex="1" connectable="0">
          <mxGeometry x="0.8157" y="-1" relative="1" as="geometry">
            <mxPoint x="160" y="-9" as="offset" />
          </mxGeometry>
        </mxCell>
        <mxCell id="6KmHtFEhfaegatbygs95-30" value="*" style="edgeLabel;html=1;align=center;verticalAlign=middle;resizable=0;points=[];fontSize=12;" parent="6KmHtFEhfaegatbygs95-28" vertex="1" connectable="0">
          <mxGeometry x="0.8309" y="-1" relative="1" as="geometry">
            <mxPoint x="-7" y="-8" as="offset" />
          </mxGeometry>
        </mxCell>
        <mxCell id="6KmHtFEhfaegatbygs95-49" value="- tables" style="edgeLabel;html=1;align=center;verticalAlign=middle;resizable=0;points=[];fontSize=12;" parent="6KmHtFEhfaegatbygs95-28" vertex="1" connectable="0">
          <mxGeometry x="0.7777" y="-2" relative="1" as="geometry">
            <mxPoint x="72" y="-12" as="offset" />
          </mxGeometry>
        </mxCell>
        <mxCell id="6KmHtFEhfaegatbygs95-31" value="" style="group" parent="1" vertex="1" connectable="0">
          <mxGeometry x="-1818" y="-83" width="496" height="273" as="geometry" />
        </mxCell>
        <mxCell id="6KmHtFEhfaegatbygs95-32" value="Exception" style="swimlane;fontStyle=1;align=center;verticalAlign=top;childLayout=stackLayout;horizontal=1;startSize=26;horizontalStack=0;resizeParent=1;resizeParentMax=0;resizeLast=0;collapsible=1;marginBottom=0;whiteSpace=wrap;html=1;" parent="6KmHtFEhfaegatbygs95-31" vertex="1">
          <mxGeometry x="133" width="160" height="34" as="geometry" />
        </mxCell>
        <mxCell id="6KmHtFEhfaegatbygs95-33" value="" style="line;strokeWidth=1;fillColor=none;align=left;verticalAlign=middle;spacingTop=-1;spacingLeft=3;spacingRight=3;rotatable=0;labelPosition=right;points=[];portConstraint=eastwest;strokeColor=inherit;" parent="6KmHtFEhfaegatbygs95-32" vertex="1">
          <mxGeometry y="26" width="160" height="8" as="geometry" />
        </mxCell>
        <mxCell id="6KmHtFEhfaegatbygs95-34" value="exception" style="shape=folder;fontStyle=1;tabWidth=110;tabHeight=30;tabPosition=left;html=1;boundedLbl=1;labelInHeader=1;container=1;collapsible=0;whiteSpace=wrap;recursiveResize=0;" parent="6KmHtFEhfaegatbygs95-31" vertex="1">
          <mxGeometry y="34" width="496" height="239" as="geometry" />
        </mxCell>
        <mxCell id="6KmHtFEhfaegatbygs95-35" value="" style="html=1;strokeColor=none;resizeWidth=1;resizeHeight=1;fillColor=none;part=1;connectable=0;allowArrows=0;deletable=0;whiteSpace=wrap;" parent="6KmHtFEhfaegatbygs95-34" vertex="1">
          <mxGeometry width="496" height="210.00000000000003" relative="1" as="geometry">
            <mxPoint y="30" as="offset" />
          </mxGeometry>
        </mxCell>
        <mxCell id="6KmHtFEhfaegatbygs95-36" value="DAOException" style="swimlane;fontStyle=1;align=center;verticalAlign=top;childLayout=stackLayout;horizontal=1;startSize=26;horizontalStack=0;resizeParent=1;resizeParentMax=0;resizeLast=0;collapsible=1;marginBottom=0;whiteSpace=wrap;html=1;" parent="6KmHtFEhfaegatbygs95-34" vertex="1">
          <mxGeometry x="8.5" y="88.20598006644519" width="160" height="33.9734219269103" as="geometry" />
        </mxCell>
        <mxCell id="6KmHtFEhfaegatbygs95-37" value="" style="line;strokeWidth=1;fillColor=none;align=left;verticalAlign=middle;spacingTop=-1;spacingLeft=3;spacingRight=3;rotatable=0;labelPosition=right;points=[];portConstraint=eastwest;strokeColor=inherit;" parent="6KmHtFEhfaegatbygs95-36" vertex="1">
          <mxGeometry y="26" width="160" height="7.973421926910299" as="geometry" />
        </mxCell>
        <mxCell id="6KmHtFEhfaegatbygs95-38" value="DatabaseException" style="swimlane;fontStyle=1;align=center;verticalAlign=top;childLayout=stackLayout;horizontal=1;startSize=26;horizontalStack=0;resizeParent=1;resizeParentMax=0;resizeLast=0;collapsible=1;marginBottom=0;whiteSpace=wrap;html=1;" parent="6KmHtFEhfaegatbygs95-34" vertex="1">
          <mxGeometry x="227.5" y="88.20598006644519" width="160" height="33.9734219269103" as="geometry" />
        </mxCell>
        <mxCell id="6KmHtFEhfaegatbygs95-39" value="" style="line;strokeWidth=1;fillColor=none;align=left;verticalAlign=middle;spacingTop=-1;spacingLeft=3;spacingRight=3;rotatable=0;labelPosition=right;points=[];portConstraint=eastwest;strokeColor=inherit;" parent="6KmHtFEhfaegatbygs95-38" vertex="1">
          <mxGeometry y="26" width="160" height="7.973421926910299" as="geometry" />
        </mxCell>
        <mxCell id="6KmHtFEhfaegatbygs95-40" value="EntityNotFoundException" style="swimlane;fontStyle=1;align=center;verticalAlign=top;childLayout=stackLayout;horizontal=1;startSize=26;horizontalStack=0;resizeParent=1;resizeParentMax=0;resizeLast=0;collapsible=1;marginBottom=0;whiteSpace=wrap;html=1;" parent="6KmHtFEhfaegatbygs95-34" vertex="1">
          <mxGeometry x="127.5" y="177.90697674418604" width="160" height="33.9734219269103" as="geometry" />
        </mxCell>
        <mxCell id="6KmHtFEhfaegatbygs95-41" value="" style="line;strokeWidth=1;fillColor=none;align=left;verticalAlign=middle;spacingTop=-1;spacingLeft=3;spacingRight=3;rotatable=0;labelPosition=right;points=[];portConstraint=eastwest;strokeColor=inherit;" parent="6KmHtFEhfaegatbygs95-40" vertex="1">
          <mxGeometry y="26" width="160" height="7.973421926910299" as="geometry" />
        </mxCell>
        <mxCell id="6KmHtFEhfaegatbygs95-42" value="UniqueKeyException" style="swimlane;fontStyle=1;align=center;verticalAlign=top;childLayout=stackLayout;horizontal=1;startSize=26;horizontalStack=0;resizeParent=1;resizeParentMax=0;resizeLast=0;collapsible=1;marginBottom=0;whiteSpace=wrap;html=1;" parent="6KmHtFEhfaegatbygs95-34" vertex="1">
          <mxGeometry x="327.5" y="177.90697674418604" width="160" height="33.9734219269103" as="geometry" />
        </mxCell>
        <mxCell id="6KmHtFEhfaegatbygs95-43" value="" style="line;strokeWidth=1;fillColor=none;align=left;verticalAlign=middle;spacingTop=-1;spacingLeft=3;spacingRight=3;rotatable=0;labelPosition=right;points=[];portConstraint=eastwest;strokeColor=inherit;" parent="6KmHtFEhfaegatbygs95-42" vertex="1">
          <mxGeometry y="26" width="160" height="7.973421926910299" as="geometry" />
        </mxCell>
        <mxCell id="6KmHtFEhfaegatbygs95-44" style="edgeStyle=orthogonalEdgeStyle;rounded=0;orthogonalLoop=1;jettySize=auto;html=1;exitX=0.5;exitY=1;exitDx=0;exitDy=0;entryX=0.5;entryY=0;entryDx=0;entryDy=0;fontSize=12;startSize=8;endSize=8;startArrow=block;startFill=0;endArrow=none;endFill=0;" parent="6KmHtFEhfaegatbygs95-34" source="6KmHtFEhfaegatbygs95-38" target="6KmHtFEhfaegatbygs95-40" edge="1">
          <mxGeometry relative="1" as="geometry" />
        </mxCell>
        <mxCell id="6KmHtFEhfaegatbygs95-45" style="edgeStyle=orthogonalEdgeStyle;rounded=0;orthogonalLoop=1;jettySize=auto;html=1;exitX=0.5;exitY=1;exitDx=0;exitDy=0;entryX=0.5;entryY=0;entryDx=0;entryDy=0;fontSize=12;startSize=8;endSize=8;startArrow=block;startFill=0;endArrow=none;endFill=0;" parent="6KmHtFEhfaegatbygs95-34" source="6KmHtFEhfaegatbygs95-38" target="6KmHtFEhfaegatbygs95-42" edge="1">
          <mxGeometry relative="1" as="geometry" />
        </mxCell>
        <mxCell id="6KmHtFEhfaegatbygs95-46" style="edgeStyle=orthogonalEdgeStyle;rounded=0;orthogonalLoop=1;jettySize=auto;html=1;entryX=0.5;entryY=0;entryDx=0;entryDy=0;fontSize=12;startSize=8;endSize=8;startArrow=block;startFill=0;endArrow=none;endFill=0;" parent="6KmHtFEhfaegatbygs95-31" source="6KmHtFEhfaegatbygs95-32" target="6KmHtFEhfaegatbygs95-36" edge="1">
          <mxGeometry relative="1" as="geometry" />
        </mxCell>
        <mxCell id="6KmHtFEhfaegatbygs95-47" style="edgeStyle=orthogonalEdgeStyle;rounded=0;orthogonalLoop=1;jettySize=auto;html=1;entryX=0.5;entryY=0;entryDx=0;entryDy=0;fontSize=12;startSize=8;endSize=8;startArrow=block;startFill=0;endArrow=none;endFill=0;" parent="6KmHtFEhfaegatbygs95-31" source="6KmHtFEhfaegatbygs95-32" target="6KmHtFEhfaegatbygs95-38" edge="1">
          <mxGeometry relative="1" as="geometry" />
        </mxCell>
        <mxCell id="6KmHtFEhfaegatbygs95-48" style="edgeStyle=none;curved=1;rounded=0;orthogonalLoop=1;jettySize=auto;html=1;exitX=1;exitY=0.5;exitDx=0;exitDy=0;entryX=0;entryY=0.5;entryDx=0;entryDy=0;fontSize=12;startSize=8;endSize=8;startArrow=classic;startFill=1;endArrow=none;endFill=0;" parent="1" source="6KmHtFEhfaegatbygs95-38" target="6KmHtFEhfaegatbygs95-7" edge="1">
          <mxGeometry relative="1" as="geometry" />
        </mxCell>
        <mxCell id="1ct5piCCGAT7SgIkqPiA-1" value="entity" style="shape=folder;fontStyle=1;tabWidth=110;tabHeight=30;tabPosition=left;html=1;boundedLbl=1;labelInHeader=1;container=1;collapsible=0;whiteSpace=wrap;recursiveResize=0;" parent="1" vertex="1">
          <mxGeometry x="-777" y="-1176" width="1232" height="901" as="geometry" />
        </mxCell>
        <mxCell id="1ct5piCCGAT7SgIkqPiA-2" value="" style="html=1;strokeColor=none;resizeWidth=1;resizeHeight=1;fillColor=none;part=1;connectable=0;allowArrows=0;deletable=0;whiteSpace=wrap;" parent="1ct5piCCGAT7SgIkqPiA-1" vertex="1">
          <mxGeometry width="907" height="486" relative="1" as="geometry">
            <mxPoint x="-87" y="30" as="offset" />
          </mxGeometry>
        </mxCell>
        <mxCell id="1ct5piCCGAT7SgIkqPiA-3" style="edgeStyle=none;curved=1;rounded=0;orthogonalLoop=1;jettySize=auto;html=1;entryX=0.5;entryY=0;entryDx=0;entryDy=0;fontSize=12;startSize=8;endSize=8;startArrow=block;startFill=0;endArrow=none;endFill=0;" parent="1ct5piCCGAT7SgIkqPiA-1" source="1ct5piCCGAT7SgIkqPiA-8" target="1ct5piCCGAT7SgIkqPiA-43" edge="1">
          <mxGeometry relative="1" as="geometry" />
        </mxCell>
        <mxCell id="1ct5piCCGAT7SgIkqPiA-4" style="edgeStyle=none;curved=1;rounded=0;orthogonalLoop=1;jettySize=auto;html=1;entryX=0;entryY=0.5;entryDx=0;entryDy=0;fontSize=12;startSize=8;endSize=8;startArrow=block;startFill=0;endArrow=none;endFill=0;" parent="1ct5piCCGAT7SgIkqPiA-1" source="1ct5piCCGAT7SgIkqPiA-8" target="1ct5piCCGAT7SgIkqPiA-19" edge="1">
          <mxGeometry relative="1" as="geometry" />
        </mxCell>
        <mxCell id="1ct5piCCGAT7SgIkqPiA-5" style="edgeStyle=elbowEdgeStyle;rounded=0;orthogonalLoop=1;jettySize=auto;html=1;entryX=0.25;entryY=0;entryDx=0;entryDy=0;fontSize=12;startSize=8;endSize=8;startArrow=block;startFill=0;endArrow=none;endFill=0;exitX=0.5;exitY=0;exitDx=0;exitDy=0;elbow=vertical;" parent="1ct5piCCGAT7SgIkqPiA-1" source="1ct5piCCGAT7SgIkqPiA-8" target="1ct5piCCGAT7SgIkqPiA-38" edge="1">
          <mxGeometry relative="1" as="geometry">
            <Array as="points">
              <mxPoint x="418" y="444" />
            </Array>
          </mxGeometry>
        </mxCell>
        <mxCell id="1ct5piCCGAT7SgIkqPiA-6" style="rounded=0;orthogonalLoop=1;jettySize=auto;html=1;exitX=0.5;exitY=0;exitDx=0;exitDy=0;entryX=0.5;entryY=0;entryDx=0;entryDy=0;fontSize=12;startSize=8;endSize=8;startArrow=block;startFill=0;endArrow=none;endFill=0;edgeStyle=orthogonalEdgeStyle;" parent="1ct5piCCGAT7SgIkqPiA-1" source="1ct5piCCGAT7SgIkqPiA-8" target="1ct5piCCGAT7SgIkqPiA-53" edge="1">
          <mxGeometry relative="1" as="geometry">
            <Array as="points">
              <mxPoint x="108" y="42" />
              <mxPoint x="1127" y="42" />
            </Array>
          </mxGeometry>
        </mxCell>
        <mxCell id="1ct5piCCGAT7SgIkqPiA-7" style="edgeStyle=orthogonalEdgeStyle;rounded=0;orthogonalLoop=1;jettySize=auto;html=1;exitX=0.5;exitY=0;exitDx=0;exitDy=0;entryX=0;entryY=0.5;entryDx=0;entryDy=0;fontSize=12;startSize=8;endSize=8;startArrow=block;startFill=0;endArrow=none;endFill=0;" parent="1ct5piCCGAT7SgIkqPiA-1" source="1ct5piCCGAT7SgIkqPiA-8" target="1ct5piCCGAT7SgIkqPiA-75" edge="1">
          <mxGeometry relative="1" as="geometry" />
        </mxCell>
        <mxCell id="1ct5piCCGAT7SgIkqPiA-8" value="&lt;i&gt;Entity&lt;/i&gt;" style="swimlane;fontStyle=1;align=center;verticalAlign=top;childLayout=stackLayout;horizontal=1;startSize=26;horizontalStack=0;resizeParent=1;resizeParentMax=0;resizeLast=0;collapsible=1;marginBottom=0;whiteSpace=wrap;html=1;aspect=fixed;" parent="1ct5piCCGAT7SgIkqPiA-1" vertex="1">
          <mxGeometry x="46.8300815850816" y="533.5108080808081" width="122.34804195804196" height="62.489766899766906" as="geometry" />
        </mxCell>
        <mxCell id="1ct5piCCGAT7SgIkqPiA-9" value="#&lt;span style=&quot;background-color: initial;&quot;&gt;&amp;nbsp;id: Long&lt;/span&gt;" style="text;strokeColor=none;fillColor=none;align=left;verticalAlign=top;spacingLeft=4;spacingRight=4;overflow=hidden;rotatable=0;points=[[0,0.5],[1,0.5]];portConstraint=eastwest;whiteSpace=wrap;html=1;" parent="1ct5piCCGAT7SgIkqPiA-8" vertex="1">
          <mxGeometry y="26" width="122.34804195804196" height="27.903939393939396" as="geometry" />
        </mxCell>
        <mxCell id="1ct5piCCGAT7SgIkqPiA-10" value="" style="line;strokeWidth=1;fillColor=none;align=left;verticalAlign=middle;spacingTop=-1;spacingLeft=3;spacingRight=3;rotatable=0;labelPosition=right;points=[];portConstraint=eastwest;strokeColor=inherit;" parent="1ct5piCCGAT7SgIkqPiA-8" vertex="1">
          <mxGeometry y="53.903939393939396" width="122.34804195804196" height="8.585827505827506" as="geometry" />
        </mxCell>
        <mxCell id="1ct5piCCGAT7SgIkqPiA-11" style="edgeStyle=none;curved=1;rounded=0;orthogonalLoop=1;jettySize=auto;html=1;entryX=0.5;entryY=0;entryDx=0;entryDy=0;fontSize=12;startSize=8;endSize=8;startArrow=block;startFill=0;endArrow=none;endFill=0;" parent="1ct5piCCGAT7SgIkqPiA-1" source="1ct5piCCGAT7SgIkqPiA-16" target="1ct5piCCGAT7SgIkqPiA-29" edge="1">
          <mxGeometry relative="1" as="geometry" />
        </mxCell>
        <mxCell id="1ct5piCCGAT7SgIkqPiA-12" style="edgeStyle=none;curved=1;rounded=0;orthogonalLoop=1;jettySize=auto;html=1;entryX=0;entryY=0.5;entryDx=0;entryDy=0;fontSize=12;startSize=8;endSize=8;startArrow=diamondThin;startFill=1;endArrow=none;endFill=0;" parent="1ct5piCCGAT7SgIkqPiA-1" source="1ct5piCCGAT7SgIkqPiA-16" target="1ct5piCCGAT7SgIkqPiA-40" edge="1">
          <mxGeometry relative="1" as="geometry" />
        </mxCell>
        <mxCell id="1ct5piCCGAT7SgIkqPiA-13" value="1" style="edgeLabel;html=1;align=center;verticalAlign=middle;resizable=0;points=[];fontSize=12;" parent="1ct5piCCGAT7SgIkqPiA-12" vertex="1" connectable="0">
          <mxGeometry x="-0.7189" relative="1" as="geometry">
            <mxPoint x="-1" y="-9" as="offset" />
          </mxGeometry>
        </mxCell>
        <mxCell id="1ct5piCCGAT7SgIkqPiA-14" value="*" style="edgeLabel;html=1;align=center;verticalAlign=middle;resizable=0;points=[];fontSize=12;" parent="1ct5piCCGAT7SgIkqPiA-12" vertex="1" connectable="0">
          <mxGeometry x="0.8087" relative="1" as="geometry">
            <mxPoint x="-1" y="-9" as="offset" />
          </mxGeometry>
        </mxCell>
        <mxCell id="1ct5piCCGAT7SgIkqPiA-15" value="# accounts" style="edgeLabel;html=1;align=center;verticalAlign=middle;resizable=0;points=[];fontSize=12;" parent="1ct5piCCGAT7SgIkqPiA-12" vertex="1" connectable="0">
          <mxGeometry x="-0.0043" relative="1" as="geometry">
            <mxPoint y="-9" as="offset" />
          </mxGeometry>
        </mxCell>
        <mxCell id="1ct5piCCGAT7SgIkqPiA-16" value="User" style="swimlane;fontStyle=1;align=center;verticalAlign=top;childLayout=stackLayout;horizontal=1;startSize=26;horizontalStack=0;resizeParent=1;resizeParentMax=0;resizeLast=0;collapsible=1;marginBottom=0;whiteSpace=wrap;html=1;" parent="1ct5piCCGAT7SgIkqPiA-1" vertex="1">
          <mxGeometry x="284" y="469" width="206" height="226.10552447552448" as="geometry" />
        </mxCell>
        <mxCell id="1ct5piCCGAT7SgIkqPiA-17" value="# name: String" style="text;strokeColor=none;fillColor=none;align=left;verticalAlign=top;spacingLeft=4;spacingRight=4;overflow=hidden;rotatable=0;points=[[0,0.5],[1,0.5]];portConstraint=eastwest;whiteSpace=wrap;html=1;" parent="1ct5piCCGAT7SgIkqPiA-16" vertex="1">
          <mxGeometry y="26" width="206" height="27.903939393939396" as="geometry" />
        </mxCell>
        <mxCell id="1ct5piCCGAT7SgIkqPiA-18" value="# document: String" style="text;strokeColor=none;fillColor=none;align=left;verticalAlign=top;spacingLeft=4;spacingRight=4;overflow=hidden;rotatable=0;points=[[0,0.5],[1,0.5]];portConstraint=eastwest;whiteSpace=wrap;html=1;" parent="1ct5piCCGAT7SgIkqPiA-16" vertex="1">
          <mxGeometry y="53.903939393939396" width="206" height="27.903939393939396" as="geometry" />
        </mxCell>
        <mxCell id="1ct5piCCGAT7SgIkqPiA-19" value="# password: String" style="text;strokeColor=none;fillColor=none;align=left;verticalAlign=top;spacingLeft=4;spacingRight=4;overflow=hidden;rotatable=0;points=[[0,0.5],[1,0.5]];portConstraint=eastwest;whiteSpace=wrap;html=1;" parent="1ct5piCCGAT7SgIkqPiA-16" vertex="1">
          <mxGeometry y="81.80787878787879" width="206" height="27.903939393939396" as="geometry" />
        </mxCell>
        <mxCell id="1ct5piCCGAT7SgIkqPiA-20" value="# age: Integer" style="text;strokeColor=none;fillColor=none;align=left;verticalAlign=top;spacingLeft=4;spacingRight=4;overflow=hidden;rotatable=0;points=[[0,0.5],[1,0.5]];portConstraint=eastwest;whiteSpace=wrap;html=1;" parent="1ct5piCCGAT7SgIkqPiA-16" vertex="1">
          <mxGeometry y="109.71181818181819" width="206" height="27.903939393939396" as="geometry" />
        </mxCell>
        <mxCell id="1ct5piCCGAT7SgIkqPiA-21" value="# email: String" style="text;strokeColor=none;fillColor=none;align=left;verticalAlign=top;spacingLeft=4;spacingRight=4;overflow=hidden;rotatable=0;points=[[0,0.5],[1,0.5]];portConstraint=eastwest;whiteSpace=wrap;html=1;" parent="1ct5piCCGAT7SgIkqPiA-16" vertex="1">
          <mxGeometry y="137.61575757575758" width="206" height="27.903939393939396" as="geometry" />
        </mxCell>
        <mxCell id="1ct5piCCGAT7SgIkqPiA-22" value="" style="line;strokeWidth=1;fillColor=none;align=left;verticalAlign=middle;spacingTop=-1;spacingLeft=3;spacingRight=3;rotatable=0;labelPosition=right;points=[];portConstraint=eastwest;strokeColor=inherit;" parent="1ct5piCCGAT7SgIkqPiA-16" vertex="1">
          <mxGeometry y="165.51969696969698" width="206" height="8.585827505827506" as="geometry" />
        </mxCell>
        <mxCell id="1ct5piCCGAT7SgIkqPiA-23" value="+ addAccount(account: Account)" style="text;strokeColor=none;fillColor=none;align=left;verticalAlign=top;spacingLeft=4;spacingRight=4;overflow=hidden;rotatable=0;points=[[0,0.5],[1,0.5]];portConstraint=eastwest;whiteSpace=wrap;html=1;" parent="1ct5piCCGAT7SgIkqPiA-16" vertex="1">
          <mxGeometry y="174.10552447552448" width="206" height="26" as="geometry" />
        </mxCell>
        <mxCell id="1ct5piCCGAT7SgIkqPiA-24" value="+ removeAccount(account:Account)" style="text;strokeColor=none;fillColor=none;align=left;verticalAlign=top;spacingLeft=4;spacingRight=4;overflow=hidden;rotatable=0;points=[[0,0.5],[1,0.5]];portConstraint=eastwest;whiteSpace=wrap;html=1;" parent="1ct5piCCGAT7SgIkqPiA-16" vertex="1">
          <mxGeometry y="200.10552447552448" width="206" height="26" as="geometry" />
        </mxCell>
        <mxCell id="1ct5piCCGAT7SgIkqPiA-25" style="edgeStyle=none;curved=1;rounded=0;orthogonalLoop=1;jettySize=auto;html=1;entryX=1;entryY=0.5;entryDx=0;entryDy=0;fontSize=12;startSize=8;endSize=8;startArrow=diamondThin;startFill=0;endArrow=none;endFill=0;" parent="1ct5piCCGAT7SgIkqPiA-1" source="1ct5piCCGAT7SgIkqPiA-29" target="1ct5piCCGAT7SgIkqPiA-45" edge="1">
          <mxGeometry relative="1" as="geometry" />
        </mxCell>
        <mxCell id="1ct5piCCGAT7SgIkqPiA-26" value="1" style="edgeLabel;html=1;align=center;verticalAlign=middle;resizable=0;points=[];fontSize=12;" parent="1ct5piCCGAT7SgIkqPiA-25" vertex="1" connectable="0">
          <mxGeometry x="0.8386" relative="1" as="geometry">
            <mxPoint y="-10" as="offset" />
          </mxGeometry>
        </mxCell>
        <mxCell id="1ct5piCCGAT7SgIkqPiA-27" value="*" style="edgeLabel;html=1;align=center;verticalAlign=middle;resizable=0;points=[];fontSize=12;" parent="1ct5piCCGAT7SgIkqPiA-25" vertex="1" connectable="0">
          <mxGeometry x="-0.7618" relative="1" as="geometry">
            <mxPoint y="-9" as="offset" />
          </mxGeometry>
        </mxCell>
        <mxCell id="1ct5piCCGAT7SgIkqPiA-28" value="- career" style="edgeLabel;html=1;align=center;verticalAlign=middle;resizable=0;points=[];fontSize=12;" parent="1ct5piCCGAT7SgIkqPiA-25" vertex="1" connectable="0">
          <mxGeometry x="0.0165" relative="1" as="geometry">
            <mxPoint x="1" y="-10" as="offset" />
          </mxGeometry>
        </mxCell>
        <mxCell id="1ct5piCCGAT7SgIkqPiA-29" value="Employee" style="swimlane;fontStyle=1;align=center;verticalAlign=top;childLayout=stackLayout;horizontal=1;startSize=26;horizontalStack=0;resizeParent=1;resizeParentMax=0;resizeLast=0;collapsible=1;marginBottom=0;whiteSpace=wrap;html=1;" parent="1ct5piCCGAT7SgIkqPiA-1" vertex="1">
          <mxGeometry x="323.5" y="762.3199999999999" width="127" height="62.489766899766906" as="geometry" />
        </mxCell>
        <mxCell id="1ct5piCCGAT7SgIkqPiA-30" value="- salary: Float" style="text;strokeColor=none;fillColor=none;align=left;verticalAlign=top;spacingLeft=4;spacingRight=4;overflow=hidden;rotatable=0;points=[[0,0.5],[1,0.5]];portConstraint=eastwest;whiteSpace=wrap;html=1;" parent="1ct5piCCGAT7SgIkqPiA-29" vertex="1">
          <mxGeometry y="26" width="127" height="27.903939393939396" as="geometry" />
        </mxCell>
        <mxCell id="1ct5piCCGAT7SgIkqPiA-31" value="" style="line;strokeWidth=1;fillColor=none;align=left;verticalAlign=middle;spacingTop=-1;spacingLeft=3;spacingRight=3;rotatable=0;labelPosition=right;points=[];portConstraint=eastwest;strokeColor=inherit;" parent="1ct5piCCGAT7SgIkqPiA-29" vertex="1">
          <mxGeometry y="53.903939393939396" width="127" height="8.585827505827506" as="geometry" />
        </mxCell>
        <mxCell id="1ct5piCCGAT7SgIkqPiA-32" style="edgeStyle=orthogonalEdgeStyle;rounded=0;orthogonalLoop=1;jettySize=auto;html=1;entryX=0.5;entryY=0;entryDx=0;entryDy=0;fontSize=12;startSize=8;endSize=8;startArrow=block;startFill=0;endArrow=none;endFill=0;" parent="1ct5piCCGAT7SgIkqPiA-1" source="1ct5piCCGAT7SgIkqPiA-38" target="1ct5piCCGAT7SgIkqPiA-66" edge="1">
          <mxGeometry relative="1" as="geometry" />
        </mxCell>
        <mxCell id="1ct5piCCGAT7SgIkqPiA-33" style="edgeStyle=orthogonalEdgeStyle;rounded=0;orthogonalLoop=1;jettySize=auto;html=1;entryX=0.5;entryY=0;entryDx=0;entryDy=0;fontSize=12;startSize=8;endSize=8;startArrow=block;startFill=0;endArrow=none;endFill=0;" parent="1ct5piCCGAT7SgIkqPiA-1" source="1ct5piCCGAT7SgIkqPiA-38" target="1ct5piCCGAT7SgIkqPiA-62" edge="1">
          <mxGeometry relative="1" as="geometry" />
        </mxCell>
        <mxCell id="1ct5piCCGAT7SgIkqPiA-34" style="edgeStyle=none;curved=1;rounded=0;orthogonalLoop=1;jettySize=auto;html=1;exitX=0.75;exitY=0;exitDx=0;exitDy=0;entryX=0.5;entryY=1;entryDx=0;entryDy=0;fontSize=12;startSize=8;endSize=8;startArrow=diamondThin;startFill=0;endArrow=none;endFill=0;" parent="1ct5piCCGAT7SgIkqPiA-1" source="1ct5piCCGAT7SgIkqPiA-38" target="1ct5piCCGAT7SgIkqPiA-73" edge="1">
          <mxGeometry relative="1" as="geometry" />
        </mxCell>
        <mxCell id="1ct5piCCGAT7SgIkqPiA-35" value="*" style="edgeLabel;html=1;align=center;verticalAlign=middle;resizable=0;points=[];fontSize=12;" parent="1ct5piCCGAT7SgIkqPiA-34" vertex="1" connectable="0">
          <mxGeometry x="0.7979" y="1" relative="1" as="geometry">
            <mxPoint x="-4" y="2" as="offset" />
          </mxGeometry>
        </mxCell>
        <mxCell id="1ct5piCCGAT7SgIkqPiA-36" value="*" style="edgeLabel;html=1;align=center;verticalAlign=middle;resizable=0;points=[];fontSize=12;" parent="1ct5piCCGAT7SgIkqPiA-34" vertex="1" connectable="0">
          <mxGeometry x="-0.6132" relative="1" as="geometry">
            <mxPoint x="-6" as="offset" />
          </mxGeometry>
        </mxCell>
        <mxCell id="1ct5piCCGAT7SgIkqPiA-37" value="# balances" style="edgeLabel;html=1;align=center;verticalAlign=middle;resizable=0;points=[];fontSize=12;" parent="1ct5piCCGAT7SgIkqPiA-34" vertex="1" connectable="0">
          <mxGeometry x="0.1028" y="2" relative="1" as="geometry">
            <mxPoint x="35" y="4" as="offset" />
          </mxGeometry>
        </mxCell>
        <mxCell id="1ct5piCCGAT7SgIkqPiA-38" value="&lt;i&gt;Account&lt;/i&gt;" style="swimlane;fontStyle=1;align=center;verticalAlign=top;childLayout=stackLayout;horizontal=1;startSize=26;horizontalStack=0;resizeParent=1;resizeParentMax=0;resizeLast=0;collapsible=1;marginBottom=0;whiteSpace=wrap;html=1;" parent="1ct5piCCGAT7SgIkqPiA-1" vertex="1">
          <mxGeometry x="628" y="533.51" width="268" height="116.39393939393939" as="geometry" />
        </mxCell>
        <mxCell id="1ct5piCCGAT7SgIkqPiA-39" value="" style="line;strokeWidth=1;fillColor=none;align=left;verticalAlign=middle;spacingTop=-1;spacingLeft=3;spacingRight=3;rotatable=0;labelPosition=right;points=[];portConstraint=eastwest;strokeColor=inherit;" parent="1ct5piCCGAT7SgIkqPiA-38" vertex="1">
          <mxGeometry y="26" width="268" height="8.585858585858587" as="geometry" />
        </mxCell>
        <mxCell id="1ct5piCCGAT7SgIkqPiA-40" value="+ debit(currency: Currency, amount: Double)" style="text;strokeColor=none;fillColor=none;align=left;verticalAlign=top;spacingLeft=4;spacingRight=4;overflow=hidden;rotatable=0;points=[[0,0.5],[1,0.5]];portConstraint=eastwest;whiteSpace=wrap;html=1;" parent="1ct5piCCGAT7SgIkqPiA-38" vertex="1">
          <mxGeometry y="34.58585858585859" width="268" height="27.904040404040405" as="geometry" />
        </mxCell>
        <mxCell id="1ct5piCCGAT7SgIkqPiA-41" value="+ credit(currency: Currency, amount: Double)" style="text;strokeColor=none;fillColor=none;align=left;verticalAlign=top;spacingLeft=4;spacingRight=4;overflow=hidden;rotatable=0;points=[[0,0.5],[1,0.5]];portConstraint=eastwest;whiteSpace=wrap;html=1;" parent="1ct5piCCGAT7SgIkqPiA-38" vertex="1">
          <mxGeometry y="62.48989898989899" width="268" height="27.904040404040405" as="geometry" />
        </mxCell>
        <mxCell id="1ct5piCCGAT7SgIkqPiA-42" value="+ addTransaction(transaction: Transaction)" style="text;strokeColor=none;fillColor=none;align=left;verticalAlign=top;spacingLeft=4;spacingRight=4;overflow=hidden;rotatable=0;points=[[0,0.5],[1,0.5]];portConstraint=eastwest;whiteSpace=wrap;html=1;" parent="1ct5piCCGAT7SgIkqPiA-38" vertex="1">
          <mxGeometry y="90.39393939393939" width="268" height="26" as="geometry" />
        </mxCell>
        <mxCell id="1ct5piCCGAT7SgIkqPiA-43" value="Career" style="swimlane;fontStyle=1;align=center;verticalAlign=top;childLayout=stackLayout;horizontal=1;startSize=26;horizontalStack=0;resizeParent=1;resizeParentMax=0;resizeLast=0;collapsible=1;marginBottom=0;whiteSpace=wrap;html=1;" parent="1ct5piCCGAT7SgIkqPiA-1" vertex="1">
          <mxGeometry x="20" y="728.56" width="176" height="138" as="geometry" />
        </mxCell>
        <mxCell id="1ct5piCCGAT7SgIkqPiA-44" value="- title: String" style="text;strokeColor=none;fillColor=none;align=left;verticalAlign=top;spacingLeft=4;spacingRight=4;overflow=hidden;rotatable=0;points=[[0,0.5],[1,0.5]];portConstraint=eastwest;whiteSpace=wrap;html=1;" parent="1ct5piCCGAT7SgIkqPiA-43" vertex="1">
          <mxGeometry y="26" width="176" height="26" as="geometry" />
        </mxCell>
        <mxCell id="1ct5piCCGAT7SgIkqPiA-45" value="- updateEmployees: Boolean" style="text;strokeColor=none;fillColor=none;align=left;verticalAlign=top;spacingLeft=4;spacingRight=4;overflow=hidden;rotatable=0;points=[[0,0.5],[1,0.5]];portConstraint=eastwest;whiteSpace=wrap;html=1;" parent="1ct5piCCGAT7SgIkqPiA-43" vertex="1">
          <mxGeometry y="52" width="176" height="26" as="geometry" />
        </mxCell>
        <mxCell id="1ct5piCCGAT7SgIkqPiA-46" value="- updateCarrers: Boolean" style="text;strokeColor=none;fillColor=none;align=left;verticalAlign=top;spacingLeft=4;spacingRight=4;overflow=hidden;rotatable=0;points=[[0,0.5],[1,0.5]];portConstraint=eastwest;whiteSpace=wrap;html=1;" parent="1ct5piCCGAT7SgIkqPiA-43" vertex="1">
          <mxGeometry y="78" width="176" height="26" as="geometry" />
        </mxCell>
        <mxCell id="1ct5piCCGAT7SgIkqPiA-47" value="- updateCurrencies: Boolean" style="text;strokeColor=none;fillColor=none;align=left;verticalAlign=top;spacingLeft=4;spacingRight=4;overflow=hidden;rotatable=0;points=[[0,0.5],[1,0.5]];portConstraint=eastwest;whiteSpace=wrap;html=1;" parent="1ct5piCCGAT7SgIkqPiA-43" vertex="1">
          <mxGeometry y="104" width="176" height="26" as="geometry" />
        </mxCell>
        <mxCell id="1ct5piCCGAT7SgIkqPiA-48" value="" style="line;strokeWidth=1;fillColor=none;align=left;verticalAlign=middle;spacingTop=-1;spacingLeft=3;spacingRight=3;rotatable=0;labelPosition=right;points=[];portConstraint=eastwest;strokeColor=inherit;" parent="1ct5piCCGAT7SgIkqPiA-43" vertex="1">
          <mxGeometry y="130" width="176" height="8" as="geometry" />
        </mxCell>
        <mxCell id="1ct5piCCGAT7SgIkqPiA-49" style="edgeStyle=orthogonalEdgeStyle;rounded=0;orthogonalLoop=1;jettySize=auto;html=1;entryX=1;entryY=0.5;entryDx=0;entryDy=0;fontSize=12;startSize=8;endSize=8;startArrow=diamondThin;startFill=0;endArrow=none;endFill=0;exitX=0.25;exitY=0;exitDx=0;exitDy=0;" parent="1ct5piCCGAT7SgIkqPiA-1" source="1ct5piCCGAT7SgIkqPiA-53" target="1ct5piCCGAT7SgIkqPiA-75" edge="1">
          <mxGeometry relative="1" as="geometry" />
        </mxCell>
        <mxCell id="1ct5piCCGAT7SgIkqPiA-50" value="1" style="edgeLabel;html=1;align=center;verticalAlign=middle;resizable=0;points=[];fontSize=12;" parent="1ct5piCCGAT7SgIkqPiA-49" vertex="1" connectable="0">
          <mxGeometry x="0.8493" y="-1" relative="1" as="geometry">
            <mxPoint x="-16" y="-8" as="offset" />
          </mxGeometry>
        </mxCell>
        <mxCell id="1ct5piCCGAT7SgIkqPiA-51" value="*" style="edgeLabel;html=1;align=center;verticalAlign=middle;resizable=0;points=[];fontSize=12;" parent="1ct5piCCGAT7SgIkqPiA-49" vertex="1" connectable="0">
          <mxGeometry x="-0.8827" y="1" relative="1" as="geometry">
            <mxPoint x="6" y="-2" as="offset" />
          </mxGeometry>
        </mxCell>
        <mxCell id="1ct5piCCGAT7SgIkqPiA-52" value="- currency" style="edgeLabel;html=1;align=center;verticalAlign=middle;resizable=0;points=[];fontSize=12;" parent="1ct5piCCGAT7SgIkqPiA-49" vertex="1" connectable="0">
          <mxGeometry x="0.6208" y="-1" relative="1" as="geometry">
            <mxPoint x="41" y="-8" as="offset" />
          </mxGeometry>
        </mxCell>
        <mxCell id="1ct5piCCGAT7SgIkqPiA-53" value="Transaction" style="swimlane;fontStyle=1;align=center;verticalAlign=top;childLayout=stackLayout;horizontal=1;startSize=26;horizontalStack=0;resizeParent=1;resizeParentMax=0;resizeLast=0;collapsible=1;marginBottom=0;whiteSpace=wrap;html=1;" parent="1ct5piCCGAT7SgIkqPiA-1" vertex="1">
          <mxGeometry x="1043" y="517.51" width="168" height="112" as="geometry" />
        </mxCell>
        <mxCell id="1ct5piCCGAT7SgIkqPiA-54" value="- actualValue: Double" style="text;strokeColor=none;fillColor=none;align=left;verticalAlign=top;spacingLeft=4;spacingRight=4;overflow=hidden;rotatable=0;points=[[0,0.5],[1,0.5]];portConstraint=eastwest;whiteSpace=wrap;html=1;" parent="1ct5piCCGAT7SgIkqPiA-53" vertex="1">
          <mxGeometry y="26" width="168" height="26" as="geometry" />
        </mxCell>
        <mxCell id="1ct5piCCGAT7SgIkqPiA-55" value="- amount: Double" style="text;strokeColor=none;fillColor=none;align=left;verticalAlign=top;spacingLeft=4;spacingRight=4;overflow=hidden;rotatable=0;points=[[0,0.5],[1,0.5]];portConstraint=eastwest;whiteSpace=wrap;html=1;" parent="1ct5piCCGAT7SgIkqPiA-53" vertex="1">
          <mxGeometry y="52" width="168" height="26" as="geometry" />
        </mxCell>
        <mxCell id="1ct5piCCGAT7SgIkqPiA-56" value="- timestamp: LocalDateTime" style="text;strokeColor=none;fillColor=none;align=left;verticalAlign=top;spacingLeft=4;spacingRight=4;overflow=hidden;rotatable=0;points=[[0,0.5],[1,0.5]];portConstraint=eastwest;whiteSpace=wrap;html=1;" parent="1ct5piCCGAT7SgIkqPiA-53" vertex="1">
          <mxGeometry y="78" width="168" height="26" as="geometry" />
        </mxCell>
        <mxCell id="1ct5piCCGAT7SgIkqPiA-57" value="" style="line;strokeWidth=1;fillColor=none;align=left;verticalAlign=middle;spacingTop=-1;spacingLeft=3;spacingRight=3;rotatable=0;labelPosition=right;points=[];portConstraint=eastwest;strokeColor=inherit;" parent="1ct5piCCGAT7SgIkqPiA-53" vertex="1">
          <mxGeometry y="104" width="168" height="8" as="geometry" />
        </mxCell>
        <mxCell id="1ct5piCCGAT7SgIkqPiA-58" style="edgeStyle=orthogonalEdgeStyle;rounded=0;orthogonalLoop=1;jettySize=auto;html=1;entryX=0.5;entryY=1;entryDx=0;entryDy=0;fontSize=12;startSize=8;endSize=8;startArrow=diamondThin;startFill=1;endArrow=none;endFill=0;" parent="1ct5piCCGAT7SgIkqPiA-1" source="1ct5piCCGAT7SgIkqPiA-62" target="1ct5piCCGAT7SgIkqPiA-53" edge="1">
          <mxGeometry relative="1" as="geometry" />
        </mxCell>
        <mxCell id="1ct5piCCGAT7SgIkqPiA-59" value="1" style="edgeLabel;html=1;align=center;verticalAlign=middle;resizable=0;points=[];fontSize=12;" parent="1ct5piCCGAT7SgIkqPiA-58" vertex="1" connectable="0">
          <mxGeometry x="-0.8818" y="-1" relative="1" as="geometry">
            <mxPoint x="-1" y="-10" as="offset" />
          </mxGeometry>
        </mxCell>
        <mxCell id="1ct5piCCGAT7SgIkqPiA-60" value="*" style="edgeLabel;html=1;align=center;verticalAlign=middle;resizable=0;points=[];fontSize=12;" parent="1ct5piCCGAT7SgIkqPiA-58" vertex="1" connectable="0">
          <mxGeometry x="0.8488" y="-1" relative="1" as="geometry">
            <mxPoint x="-6" y="3" as="offset" />
          </mxGeometry>
        </mxCell>
        <mxCell id="1ct5piCCGAT7SgIkqPiA-61" value="- pendingTransactions" style="edgeLabel;html=1;align=center;verticalAlign=middle;resizable=0;points=[];fontSize=12;" parent="1ct5piCCGAT7SgIkqPiA-58" vertex="1" connectable="0">
          <mxGeometry x="-0.6103" y="-1" relative="1" as="geometry">
            <mxPoint x="26" y="10" as="offset" />
          </mxGeometry>
        </mxCell>
        <mxCell id="1ct5piCCGAT7SgIkqPiA-62" value="CryptoAccount" style="swimlane;fontStyle=1;align=center;verticalAlign=top;childLayout=stackLayout;horizontal=1;startSize=26;horizontalStack=0;resizeParent=1;resizeParentMax=0;resizeLast=0;collapsible=1;marginBottom=0;whiteSpace=wrap;html=1;" parent="1ct5piCCGAT7SgIkqPiA-1" vertex="1">
          <mxGeometry x="730" y="728.56" width="283" height="86.58585858585859" as="geometry" />
        </mxCell>
        <mxCell id="1ct5piCCGAT7SgIkqPiA-63" value="" style="line;strokeWidth=1;fillColor=none;align=left;verticalAlign=middle;spacingTop=-1;spacingLeft=3;spacingRight=3;rotatable=0;labelPosition=right;points=[];portConstraint=eastwest;strokeColor=inherit;" parent="1ct5piCCGAT7SgIkqPiA-62" vertex="1">
          <mxGeometry y="26" width="283" height="8.585858585858587" as="geometry" />
        </mxCell>
        <mxCell id="1ct5piCCGAT7SgIkqPiA-64" value="+ updatePendencies()" style="text;strokeColor=none;fillColor=none;align=left;verticalAlign=top;spacingLeft=4;spacingRight=4;overflow=hidden;rotatable=0;points=[[0,0.5],[1,0.5]];portConstraint=eastwest;whiteSpace=wrap;html=1;" parent="1ct5piCCGAT7SgIkqPiA-62" vertex="1">
          <mxGeometry y="34.58585858585859" width="283" height="26" as="geometry" />
        </mxCell>
        <mxCell id="1ct5piCCGAT7SgIkqPiA-65" value="+ addPendingTransaction(transaction: Transaction)" style="text;strokeColor=none;fillColor=none;align=left;verticalAlign=top;spacingLeft=4;spacingRight=4;overflow=hidden;rotatable=0;points=[[0,0.5],[1,0.5]];portConstraint=eastwest;whiteSpace=wrap;html=1;" parent="1ct5piCCGAT7SgIkqPiA-62" vertex="1">
          <mxGeometry y="60.58585858585859" width="283" height="26" as="geometry" />
        </mxCell>
        <mxCell id="1ct5piCCGAT7SgIkqPiA-66" value="CurrentAccount" style="swimlane;fontStyle=1;align=center;verticalAlign=top;childLayout=stackLayout;horizontal=1;startSize=26;horizontalStack=0;resizeParent=1;resizeParentMax=0;resizeLast=0;collapsible=1;marginBottom=0;whiteSpace=wrap;html=1;" parent="1ct5piCCGAT7SgIkqPiA-1" vertex="1">
          <mxGeometry x="504" y="728.56" width="190" height="34.58585858585859" as="geometry" />
        </mxCell>
        <mxCell id="1ct5piCCGAT7SgIkqPiA-67" value="" style="line;strokeWidth=1;fillColor=none;align=left;verticalAlign=middle;spacingTop=-1;spacingLeft=3;spacingRight=3;rotatable=0;labelPosition=right;points=[];portConstraint=eastwest;strokeColor=inherit;" parent="1ct5piCCGAT7SgIkqPiA-66" vertex="1">
          <mxGeometry y="26" width="190" height="8.585858585858587" as="geometry" />
        </mxCell>
        <mxCell id="1ct5piCCGAT7SgIkqPiA-68" style="edgeStyle=none;curved=1;rounded=0;orthogonalLoop=1;jettySize=auto;html=1;exitX=1;exitY=0.5;exitDx=0;exitDy=0;entryX=0;entryY=0.5;entryDx=0;entryDy=0;fontSize=12;startSize=8;endSize=8;startArrow=diamondThin;startFill=1;endArrow=none;endFill=0;" parent="1ct5piCCGAT7SgIkqPiA-1" source="1ct5piCCGAT7SgIkqPiA-40" target="1ct5piCCGAT7SgIkqPiA-55" edge="1">
          <mxGeometry relative="1" as="geometry" />
        </mxCell>
        <mxCell id="1ct5piCCGAT7SgIkqPiA-69" value="1" style="edgeLabel;html=1;align=center;verticalAlign=middle;resizable=0;points=[];fontSize=12;" parent="1ct5piCCGAT7SgIkqPiA-68" vertex="1" connectable="0">
          <mxGeometry x="-0.8744" y="1" relative="1" as="geometry">
            <mxPoint x="5" y="-8" as="offset" />
          </mxGeometry>
        </mxCell>
        <mxCell id="1ct5piCCGAT7SgIkqPiA-70" value="*" style="edgeLabel;html=1;align=center;verticalAlign=middle;resizable=0;points=[];fontSize=12;" parent="1ct5piCCGAT7SgIkqPiA-68" vertex="1" connectable="0">
          <mxGeometry x="0.7528" y="-1" relative="1" as="geometry">
            <mxPoint y="-10" as="offset" />
          </mxGeometry>
        </mxCell>
        <mxCell id="1ct5piCCGAT7SgIkqPiA-71" value="# transactions" style="edgeLabel;html=1;align=center;verticalAlign=middle;resizable=0;points=[];fontSize=12;" parent="1ct5piCCGAT7SgIkqPiA-68" vertex="1" connectable="0">
          <mxGeometry x="-0.4315" relative="1" as="geometry">
            <mxPoint x="32" y="-10" as="offset" />
          </mxGeometry>
        </mxCell>
        <mxCell id="1ct5piCCGAT7SgIkqPiA-72" style="edgeStyle=orthogonalEdgeStyle;rounded=0;orthogonalLoop=1;jettySize=auto;html=1;exitX=0.5;exitY=0;exitDx=0;exitDy=0;entryX=0.5;entryY=1;entryDx=0;entryDy=0;fontSize=12;startSize=8;endSize=8;startArrow=block;startFill=0;endArrow=none;endFill=0;" parent="1ct5piCCGAT7SgIkqPiA-1" source="1ct5piCCGAT7SgIkqPiA-73" target="1ct5piCCGAT7SgIkqPiA-78" edge="1">
          <mxGeometry relative="1" as="geometry" />
        </mxCell>
        <mxCell id="1ct5piCCGAT7SgIkqPiA-73" value="&lt;i&gt;Currency&lt;/i&gt;" style="swimlane;fontStyle=1;align=center;verticalAlign=top;childLayout=stackLayout;horizontal=1;startSize=26;horizontalStack=0;resizeParent=1;resizeParentMax=0;resizeLast=0;collapsible=1;marginBottom=0;whiteSpace=wrap;html=1;" parent="1ct5piCCGAT7SgIkqPiA-1" vertex="1">
          <mxGeometry x="760" y="340" width="136" height="112" as="geometry" />
        </mxCell>
        <mxCell id="1ct5piCCGAT7SgIkqPiA-74" value="# name: String" style="text;strokeColor=none;fillColor=none;align=left;verticalAlign=top;spacingLeft=4;spacingRight=4;overflow=hidden;rotatable=0;points=[[0,0.5],[1,0.5]];portConstraint=eastwest;whiteSpace=wrap;html=1;" parent="1ct5piCCGAT7SgIkqPiA-73" vertex="1">
          <mxGeometry y="26" width="136" height="26" as="geometry" />
        </mxCell>
        <mxCell id="1ct5piCCGAT7SgIkqPiA-75" value="# symbol: String" style="text;strokeColor=none;fillColor=none;align=left;verticalAlign=top;spacingLeft=4;spacingRight=4;overflow=hidden;rotatable=0;points=[[0,0.5],[1,0.5]];portConstraint=eastwest;whiteSpace=wrap;html=1;" parent="1ct5piCCGAT7SgIkqPiA-73" vertex="1">
          <mxGeometry y="52" width="136" height="26" as="geometry" />
        </mxCell>
        <mxCell id="1ct5piCCGAT7SgIkqPiA-76" value="#&lt;span style=&quot;background-color: initial;&quot;&gt;&amp;nbsp;value: Double&lt;/span&gt;" style="text;strokeColor=none;fillColor=none;align=left;verticalAlign=top;spacingLeft=4;spacingRight=4;overflow=hidden;rotatable=0;points=[[0,0.5],[1,0.5]];portConstraint=eastwest;whiteSpace=wrap;html=1;" parent="1ct5piCCGAT7SgIkqPiA-73" vertex="1">
          <mxGeometry y="78" width="136" height="26" as="geometry" />
        </mxCell>
        <mxCell id="1ct5piCCGAT7SgIkqPiA-77" value="" style="line;strokeWidth=1;fillColor=none;align=left;verticalAlign=middle;spacingTop=-1;spacingLeft=3;spacingRight=3;rotatable=0;labelPosition=right;points=[];portConstraint=eastwest;strokeColor=inherit;" parent="1ct5piCCGAT7SgIkqPiA-73" vertex="1">
          <mxGeometry y="104" width="136" height="8" as="geometry" />
        </mxCell>
        <mxCell id="1ct5piCCGAT7SgIkqPiA-78" value="FiatCurrency" style="swimlane;fontStyle=1;align=center;verticalAlign=top;childLayout=stackLayout;horizontal=1;startSize=26;horizontalStack=0;resizeParent=1;resizeParentMax=0;resizeLast=0;collapsible=1;marginBottom=0;whiteSpace=wrap;html=1;" parent="1ct5piCCGAT7SgIkqPiA-1" vertex="1">
          <mxGeometry x="652" y="230" width="160" height="34" as="geometry" />
        </mxCell>
        <mxCell id="1ct5piCCGAT7SgIkqPiA-79" value="" style="line;strokeWidth=1;fillColor=none;align=left;verticalAlign=middle;spacingTop=-1;spacingLeft=3;spacingRight=3;rotatable=0;labelPosition=right;points=[];portConstraint=eastwest;strokeColor=inherit;" parent="1ct5piCCGAT7SgIkqPiA-78" vertex="1">
          <mxGeometry y="26" width="160" height="8" as="geometry" />
        </mxCell>
        <mxCell id="1ct5piCCGAT7SgIkqPiA-80" value="CryptoCurrency" style="swimlane;fontStyle=1;align=center;verticalAlign=top;childLayout=stackLayout;horizontal=1;startSize=26;horizontalStack=0;resizeParent=1;resizeParentMax=0;resizeLast=0;collapsible=1;marginBottom=0;whiteSpace=wrap;html=1;" parent="1ct5piCCGAT7SgIkqPiA-1" vertex="1">
          <mxGeometry x="847" y="48" width="201" height="216" as="geometry" />
        </mxCell>
        <mxCell id="1ct5piCCGAT7SgIkqPiA-81" value="- originalValue: Double" style="text;strokeColor=none;fillColor=none;align=left;verticalAlign=top;spacingLeft=4;spacingRight=4;overflow=hidden;rotatable=0;points=[[0,0.5],[1,0.5]];portConstraint=eastwest;whiteSpace=wrap;html=1;" parent="1ct5piCCGAT7SgIkqPiA-80" vertex="1">
          <mxGeometry y="26" width="201" height="26" as="geometry" />
        </mxCell>
        <mxCell id="1ct5piCCGAT7SgIkqPiA-82" value="- supplyMaximum: Double" style="text;strokeColor=none;fillColor=none;align=left;verticalAlign=top;spacingLeft=4;spacingRight=4;overflow=hidden;rotatable=0;points=[[0,0.5],[1,0.5]];portConstraint=eastwest;whiteSpace=wrap;html=1;" parent="1ct5piCCGAT7SgIkqPiA-80" vertex="1">
          <mxGeometry y="52" width="201" height="26" as="geometry" />
        </mxCell>
        <mxCell id="1ct5piCCGAT7SgIkqPiA-83" value="- growth: Double" style="text;strokeColor=none;fillColor=none;align=left;verticalAlign=top;spacingLeft=4;spacingRight=4;overflow=hidden;rotatable=0;points=[[0,0.5],[1,0.5]];portConstraint=eastwest;whiteSpace=wrap;html=1;" parent="1ct5piCCGAT7SgIkqPiA-80" vertex="1">
          <mxGeometry y="78" width="201" height="26" as="geometry" />
        </mxCell>
        <mxCell id="1ct5piCCGAT7SgIkqPiA-84" value="- supplyInUse: Double = 0" style="text;strokeColor=none;fillColor=none;align=left;verticalAlign=top;spacingLeft=4;spacingRight=4;overflow=hidden;rotatable=0;points=[[0,0.5],[1,0.5]];portConstraint=eastwest;whiteSpace=wrap;html=1;" parent="1ct5piCCGAT7SgIkqPiA-80" vertex="1">
          <mxGeometry y="104" width="201" height="26" as="geometry" />
        </mxCell>
        <mxCell id="1ct5piCCGAT7SgIkqPiA-85" value="" style="line;strokeWidth=1;fillColor=none;align=left;verticalAlign=middle;spacingTop=-1;spacingLeft=3;spacingRight=3;rotatable=0;labelPosition=right;points=[];portConstraint=eastwest;strokeColor=inherit;" parent="1ct5piCCGAT7SgIkqPiA-80" vertex="1">
          <mxGeometry y="130" width="201" height="8" as="geometry" />
        </mxCell>
        <mxCell id="1ct5piCCGAT7SgIkqPiA-86" value="+ buy(amount: Integer): Boolean" style="text;strokeColor=none;fillColor=none;align=left;verticalAlign=top;spacingLeft=4;spacingRight=4;overflow=hidden;rotatable=0;points=[[0,0.5],[1,0.5]];portConstraint=eastwest;whiteSpace=wrap;html=1;" parent="1ct5piCCGAT7SgIkqPiA-80" vertex="1">
          <mxGeometry y="138" width="201" height="26" as="geometry" />
        </mxCell>
        <mxCell id="1ct5piCCGAT7SgIkqPiA-87" value="+ sell(amount: Integer): Boolean" style="text;strokeColor=none;fillColor=none;align=left;verticalAlign=top;spacingLeft=4;spacingRight=4;overflow=hidden;rotatable=0;points=[[0,0.5],[1,0.5]];portConstraint=eastwest;whiteSpace=wrap;html=1;" parent="1ct5piCCGAT7SgIkqPiA-80" vertex="1">
          <mxGeometry y="164" width="201" height="26" as="geometry" />
        </mxCell>
        <mxCell id="1ct5piCCGAT7SgIkqPiA-88" value="- autoUpdateValue()" style="text;strokeColor=none;fillColor=none;align=left;verticalAlign=top;spacingLeft=4;spacingRight=4;overflow=hidden;rotatable=0;points=[[0,0.5],[1,0.5]];portConstraint=eastwest;whiteSpace=wrap;html=1;" parent="1ct5piCCGAT7SgIkqPiA-80" vertex="1">
          <mxGeometry y="190" width="201" height="26" as="geometry" />
        </mxCell>
        <mxCell id="1ct5piCCGAT7SgIkqPiA-89" style="edgeStyle=orthogonalEdgeStyle;rounded=0;orthogonalLoop=1;jettySize=auto;html=1;exitX=0.5;exitY=0;exitDx=0;exitDy=0;entryX=0.503;entryY=1.001;entryDx=0;entryDy=0;entryPerimeter=0;fontSize=12;startSize=8;endSize=8;startArrow=block;startFill=0;endArrow=none;endFill=0;" parent="1ct5piCCGAT7SgIkqPiA-1" source="1ct5piCCGAT7SgIkqPiA-73" target="1ct5piCCGAT7SgIkqPiA-88" edge="1">
          <mxGeometry relative="1" as="geometry">
            <Array as="points">
              <mxPoint x="828" y="302" />
              <mxPoint x="948" y="302" />
            </Array>
          </mxGeometry>
        </mxCell>
        <mxCell id="1ct5piCCGAT7SgIkqPiA-90" style="edgeStyle=orthogonalEdgeStyle;rounded=0;orthogonalLoop=1;jettySize=auto;html=1;exitX=0;exitY=0.5;exitDx=0;exitDy=0;entryX=0;entryY=0.5;entryDx=0;entryDy=0;fontSize=12;startSize=8;endSize=8;startArrow=classic;startFill=1;endArrow=none;endFill=0;" parent="1" source="1ct5piCCGAT7SgIkqPiA-9" target="6KmHtFEhfaegatbygs95-7" edge="1">
          <mxGeometry relative="1" as="geometry">
            <Array as="points">
              <mxPoint x="-1226" y="-602" />
              <mxPoint x="-1226" y="53" />
            </Array>
          </mxGeometry>
        </mxCell>
        <mxCell id="5ARbzsG06lUM21EcvZRN-1" value="dao" style="shape=folder;fontStyle=1;tabWidth=110;tabHeight=30;tabPosition=left;html=1;boundedLbl=1;labelInHeader=1;container=1;collapsible=0;whiteSpace=wrap;recursiveResize=0;" parent="1" vertex="1">
          <mxGeometry x="-265" y="-157" width="901" height="389" as="geometry" />
        </mxCell>
        <mxCell id="5ARbzsG06lUM21EcvZRN-2" value="" style="html=1;strokeColor=none;resizeWidth=1;resizeHeight=1;fillColor=none;part=1;connectable=0;allowArrows=0;deletable=0;whiteSpace=wrap;" parent="5ARbzsG06lUM21EcvZRN-1" vertex="1">
          <mxGeometry width="150" height="70" relative="1" as="geometry">
            <mxPoint y="30" as="offset" />
          </mxGeometry>
        </mxCell>
        <mxCell id="5ARbzsG06lUM21EcvZRN-3" value="CurrencyDAO" style="swimlane;fontStyle=1;align=center;verticalAlign=top;childLayout=stackLayout;horizontal=1;startSize=26;horizontalStack=0;resizeParent=1;resizeParentMax=0;resizeLast=0;collapsible=1;marginBottom=0;whiteSpace=wrap;html=1;" parent="5ARbzsG06lUM21EcvZRN-1" vertex="1">
          <mxGeometry x="315" y="339" width="269.5" height="34" as="geometry" />
        </mxCell>
        <mxCell id="5ARbzsG06lUM21EcvZRN-4" value="" style="line;strokeWidth=1;fillColor=none;align=left;verticalAlign=middle;spacingTop=-1;spacingLeft=3;spacingRight=3;rotatable=0;labelPosition=right;points=[];portConstraint=eastwest;strokeColor=inherit;" parent="5ARbzsG06lUM21EcvZRN-3" vertex="1">
          <mxGeometry y="26" width="269.5" height="8" as="geometry" />
        </mxCell>
        <mxCell id="5ARbzsG06lUM21EcvZRN-5" value="CareerDAO" style="swimlane;fontStyle=1;align=center;verticalAlign=top;childLayout=stackLayout;horizontal=1;startSize=26;horizontalStack=0;resizeParent=1;resizeParentMax=0;resizeLast=0;collapsible=1;marginBottom=0;whiteSpace=wrap;html=1;" parent="5ARbzsG06lUM21EcvZRN-1" vertex="1">
          <mxGeometry x="611" y="339" width="269.5" height="34" as="geometry" />
        </mxCell>
        <mxCell id="5ARbzsG06lUM21EcvZRN-6" value="" style="line;strokeWidth=1;fillColor=none;align=left;verticalAlign=middle;spacingTop=-1;spacingLeft=3;spacingRight=3;rotatable=0;labelPosition=right;points=[];portConstraint=eastwest;strokeColor=inherit;" parent="5ARbzsG06lUM21EcvZRN-5" vertex="1">
          <mxGeometry y="26" width="269.5" height="8" as="geometry" />
        </mxCell>
        <mxCell id="5ARbzsG06lUM21EcvZRN-7" style="rounded=0;orthogonalLoop=1;jettySize=auto;html=1;entryX=0.5;entryY=0;entryDx=0;entryDy=0;fontSize=12;edgeStyle=orthogonalEdgeStyle;elbow=vertical;startArrow=open;startFill=0;endArrow=none;endFill=0;dashed=1;" parent="5ARbzsG06lUM21EcvZRN-1" source="5ARbzsG06lUM21EcvZRN-10" target="5ARbzsG06lUM21EcvZRN-3" edge="1">
          <mxGeometry relative="1" as="geometry" />
        </mxCell>
        <mxCell id="5ARbzsG06lUM21EcvZRN-8" style="edgeStyle=orthogonalEdgeStyle;rounded=0;orthogonalLoop=1;jettySize=auto;html=1;entryX=0.5;entryY=0;entryDx=0;entryDy=0;fontSize=12;startSize=8;endSize=8;exitX=0.496;exitY=1.003;exitDx=0;exitDy=0;exitPerimeter=0;startArrow=open;startFill=0;endArrow=none;endFill=0;dashed=1;" parent="5ARbzsG06lUM21EcvZRN-1" source="5ARbzsG06lUM21EcvZRN-17" target="5ARbzsG06lUM21EcvZRN-5" edge="1">
          <mxGeometry relative="1" as="geometry">
            <mxPoint x="475.75" y="-130" as="sourcePoint" />
          </mxGeometry>
        </mxCell>
        <mxCell id="5ARbzsG06lUM21EcvZRN-9" value="" style="group;points=[[0,0,0,0,0],[0,0.25,0,0,0],[0,0.5,0,0,0],[0,0.75,0,0,0],[0,1,0,0,0],[0.25,0,0,0,0],[0.25,1,0,0,0],[0.5,0,0,0,0],[0.5,1,0,0,0],[0.75,0,0,0,0],[0.75,1,0,0,0],[1,0,0,0,0],[1,0.25,0,0,0],[1,0.5,0,0,0],[1,0.75,0,0,0],[1,1,0,0,0]];" parent="5ARbzsG06lUM21EcvZRN-1" vertex="1" connectable="0">
          <mxGeometry x="328.75" y="46" width="258" height="232" as="geometry" />
        </mxCell>
        <mxCell id="5ARbzsG06lUM21EcvZRN-10" value="&lt;i&gt;&amp;lt;&amp;lt;interface&amp;gt;&amp;gt;&lt;/i&gt;&lt;div&gt;DAO&lt;/div&gt;" style="swimlane;fontStyle=0;childLayout=stackLayout;horizontal=1;startSize=34;fillColor=none;horizontalStack=0;resizeParent=1;resizeParentMax=0;resizeLast=0;collapsible=1;marginBottom=0;whiteSpace=wrap;html=1;" parent="5ARbzsG06lUM21EcvZRN-9" vertex="1">
          <mxGeometry y="16" width="241" height="216" as="geometry" />
        </mxCell>
        <mxCell id="5ARbzsG06lUM21EcvZRN-11" value="+ save(entity: T)" style="text;strokeColor=none;fillColor=none;align=left;verticalAlign=top;spacingLeft=4;spacingRight=4;overflow=hidden;rotatable=0;points=[[0,0.5],[1,0.5]];portConstraint=eastwest;whiteSpace=wrap;html=1;" parent="5ARbzsG06lUM21EcvZRN-10" vertex="1">
          <mxGeometry y="34" width="241" height="26" as="geometry" />
        </mxCell>
        <mxCell id="5ARbzsG06lUM21EcvZRN-12" value="+ findById(id: Integer): T" style="text;strokeColor=none;fillColor=none;align=left;verticalAlign=top;spacingLeft=4;spacingRight=4;overflow=hidden;rotatable=0;points=[[0,0.5],[1,0.5]];portConstraint=eastwest;whiteSpace=wrap;html=1;" parent="5ARbzsG06lUM21EcvZRN-10" vertex="1">
          <mxGeometry y="60" width="241" height="26" as="geometry" />
        </mxCell>
        <mxCell id="5ARbzsG06lUM21EcvZRN-13" value="+ findAll(): List&amp;lt;T&amp;gt;" style="text;strokeColor=none;fillColor=none;align=left;verticalAlign=top;spacingLeft=4;spacingRight=4;overflow=hidden;rotatable=0;points=[[0,0.5],[1,0.5]];portConstraint=eastwest;whiteSpace=wrap;html=1;" parent="5ARbzsG06lUM21EcvZRN-10" vertex="1">
          <mxGeometry y="86" width="241" height="26" as="geometry" />
        </mxCell>
        <mxCell id="5ARbzsG06lUM21EcvZRN-14" value="+ findAll(predicate: Predicate): List&amp;lt;T&amp;gt;" style="text;strokeColor=none;fillColor=none;align=left;verticalAlign=top;spacingLeft=4;spacingRight=4;overflow=hidden;rotatable=0;points=[[0,0.5],[1,0.5]];portConstraint=eastwest;whiteSpace=wrap;html=1;" parent="5ARbzsG06lUM21EcvZRN-10" vertex="1">
          <mxGeometry y="112" width="241" height="26" as="geometry" />
        </mxCell>
        <mxCell id="5ARbzsG06lUM21EcvZRN-15" value="+ findAll(comparator: Comparator): List&amp;lt;T&amp;gt;" style="text;strokeColor=none;fillColor=none;align=left;verticalAlign=top;spacingLeft=4;spacingRight=4;overflow=hidden;rotatable=0;points=[[0,0.5],[1,0.5]];portConstraint=eastwest;whiteSpace=wrap;html=1;" parent="5ARbzsG06lUM21EcvZRN-10" vertex="1">
          <mxGeometry y="138" width="241" height="26" as="geometry" />
        </mxCell>
        <mxCell id="5ARbzsG06lUM21EcvZRN-16" value="+ update(id: Integer , entity: T)" style="text;strokeColor=none;fillColor=none;align=left;verticalAlign=top;spacingLeft=4;spacingRight=4;overflow=hidden;rotatable=0;points=[[0,0.5],[1,0.5]];portConstraint=eastwest;whiteSpace=wrap;html=1;" parent="5ARbzsG06lUM21EcvZRN-10" vertex="1">
          <mxGeometry y="164" width="241" height="26" as="geometry" />
        </mxCell>
        <mxCell id="5ARbzsG06lUM21EcvZRN-17" value="+ delete(id: Integer)" style="text;strokeColor=none;fillColor=none;align=left;verticalAlign=top;spacingLeft=4;spacingRight=4;overflow=hidden;rotatable=0;points=[[0,0.5],[1,0.5]];portConstraint=eastwest;whiteSpace=wrap;html=1;" parent="5ARbzsG06lUM21EcvZRN-10" vertex="1">
          <mxGeometry y="190" width="241" height="26" as="geometry" />
        </mxCell>
        <mxCell id="5ARbzsG06lUM21EcvZRN-18" style="edgeStyle=none;curved=1;rounded=0;orthogonalLoop=1;jettySize=auto;html=1;entryX=1;entryY=0.5;entryDx=0;entryDy=0;fontSize=12;startSize=8;endSize=8;" parent="5ARbzsG06lUM21EcvZRN-9" source="5ARbzsG06lUM21EcvZRN-10" target="5ARbzsG06lUM21EcvZRN-10" edge="1">
          <mxGeometry relative="1" as="geometry" />
        </mxCell>
        <mxCell id="5ARbzsG06lUM21EcvZRN-19" value="T extends Entity" style="shape=partialRectangle;html=1;top=1;align=left;dashed=1;" parent="5ARbzsG06lUM21EcvZRN-9" vertex="1">
          <mxGeometry x="167" width="91" height="20" as="geometry" />
        </mxCell>
        <mxCell id="5ARbzsG06lUM21EcvZRN-20" style="edgeStyle=orthogonalEdgeStyle;rounded=0;orthogonalLoop=1;jettySize=auto;html=1;exitX=0.5;exitY=1;exitDx=0;exitDy=0;entryX=0.5;entryY=0;entryDx=0;entryDy=0;fontSize=12;startSize=8;endSize=8;startArrow=open;startFill=0;endArrow=none;endFill=0;dashed=1;" parent="5ARbzsG06lUM21EcvZRN-1" source="5ARbzsG06lUM21EcvZRN-10" target="5ARbzsG06lUM21EcvZRN-21" edge="1">
          <mxGeometry relative="1" as="geometry" />
        </mxCell>
        <mxCell id="5ARbzsG06lUM21EcvZRN-21" value="UserDAO" style="swimlane;fontStyle=1;align=center;verticalAlign=top;childLayout=stackLayout;horizontal=1;startSize=26;horizontalStack=0;resizeParent=1;resizeParentMax=0;resizeLast=0;collapsible=1;marginBottom=0;whiteSpace=wrap;html=1;" parent="5ARbzsG06lUM21EcvZRN-1" vertex="1">
          <mxGeometry x="18" y="339" width="269.5" height="34" as="geometry" />
        </mxCell>
        <mxCell id="5ARbzsG06lUM21EcvZRN-22" value="" style="line;strokeWidth=1;fillColor=none;align=left;verticalAlign=middle;spacingTop=-1;spacingLeft=3;spacingRight=3;rotatable=0;labelPosition=right;points=[];portConstraint=eastwest;strokeColor=inherit;" parent="5ARbzsG06lUM21EcvZRN-21" vertex="1">
          <mxGeometry y="26" width="269.5" height="8" as="geometry" />
        </mxCell>
        <mxCell id="5ARbzsG06lUM21EcvZRN-25" style="edgeStyle=orthogonalEdgeStyle;rounded=0;orthogonalLoop=1;jettySize=auto;html=1;exitX=1;exitY=0.5;exitDx=0;exitDy=0;entryX=0.5;entryY=1;entryDx=0;entryDy=0;fontSize=12;startSize=8;endSize=8;endArrow=none;endFill=0;startArrow=classic;startFill=1;" parent="1" source="6KmHtFEhfaegatbygs95-23" target="5ARbzsG06lUM21EcvZRN-21" edge="1">
          <mxGeometry relative="1" as="geometry">
            <Array as="points">
              <mxPoint x="-389" y="27" />
              <mxPoint x="-389" y="286" />
              <mxPoint x="-112" y="286" />
            </Array>
          </mxGeometry>
        </mxCell>
        <mxCell id="5ARbzsG06lUM21EcvZRN-26" style="edgeStyle=orthogonalEdgeStyle;rounded=0;orthogonalLoop=1;jettySize=auto;html=1;exitX=1;exitY=0.5;exitDx=0;exitDy=0;entryX=0.5;entryY=1;entryDx=0;entryDy=0;fontSize=12;startSize=8;endSize=8;endArrow=none;endFill=0;startArrow=classic;startFill=1;" parent="1" source="6KmHtFEhfaegatbygs95-23" target="5ARbzsG06lUM21EcvZRN-3" edge="1">
          <mxGeometry relative="1" as="geometry">
            <Array as="points">
              <mxPoint x="-389" y="27" />
              <mxPoint x="-389" y="286" />
              <mxPoint x="185" y="286" />
            </Array>
          </mxGeometry>
        </mxCell>
        <mxCell id="5ARbzsG06lUM21EcvZRN-27" style="edgeStyle=orthogonalEdgeStyle;rounded=0;orthogonalLoop=1;jettySize=auto;html=1;exitX=1;exitY=0.5;exitDx=0;exitDy=0;entryX=0.5;entryY=1;entryDx=0;entryDy=0;fontSize=12;startSize=8;endSize=8;endArrow=none;endFill=0;startArrow=classic;startFill=1;" parent="1" source="6KmHtFEhfaegatbygs95-23" target="5ARbzsG06lUM21EcvZRN-5" edge="1">
          <mxGeometry relative="1" as="geometry">
            <Array as="points">
              <mxPoint x="-389" y="27" />
              <mxPoint x="-389" y="286" />
              <mxPoint x="481" y="286" />
            </Array>
          </mxGeometry>
        </mxCell>
        <mxCell id="5ARbzsG06lUM21EcvZRN-32" value="- database" style="edgeLabel;html=1;align=center;verticalAlign=middle;resizable=0;points=[];fontSize=12;" parent="5ARbzsG06lUM21EcvZRN-27" vertex="1" connectable="0">
          <mxGeometry x="-0.8449" y="1" relative="1" as="geometry">
            <mxPoint x="4" y="-11" as="offset" />
          </mxGeometry>
        </mxCell>
        <mxCell id="dILX5_WSjM38DmAovOwH-1" value="service" style="shape=folder;fontStyle=1;tabWidth=110;tabHeight=30;tabPosition=left;html=1;boundedLbl=1;labelInHeader=1;container=1;collapsible=0;whiteSpace=wrap;recursiveResize=0;" parent="1" vertex="1">
          <mxGeometry x="1002" y="-210" width="1539" height="893" as="geometry" />
        </mxCell>
        <mxCell id="dILX5_WSjM38DmAovOwH-2" value="" style="html=1;strokeColor=none;resizeWidth=1;resizeHeight=1;fillColor=none;part=1;connectable=0;allowArrows=0;deletable=0;whiteSpace=wrap;" parent="dILX5_WSjM38DmAovOwH-1" vertex="1">
          <mxGeometry width="617.0000000000001" height="345.09999999999997" relative="1" as="geometry">
            <mxPoint y="30" as="offset" />
          </mxGeometry>
        </mxCell>
        <mxCell id="dILX5_WSjM38DmAovOwH-3" value="AuthService" style="swimlane;fontStyle=1;align=center;verticalAlign=top;childLayout=stackLayout;horizontal=1;startSize=26;horizontalStack=0;resizeParent=1;resizeParentMax=0;resizeLast=0;collapsible=1;marginBottom=0;whiteSpace=wrap;html=1;" parent="dILX5_WSjM38DmAovOwH-1" vertex="1">
          <mxGeometry x="36" y="62" width="292" height="138" as="geometry" />
        </mxCell>
        <mxCell id="dILX5_WSjM38DmAovOwH-24" value="- user: User" style="text;strokeColor=none;fillColor=none;align=left;verticalAlign=top;spacingLeft=4;spacingRight=4;overflow=hidden;rotatable=0;points=[[0,0.5],[1,0.5]];portConstraint=eastwest;whiteSpace=wrap;html=1;fontStyle=4" parent="dILX5_WSjM38DmAovOwH-3" vertex="1">
          <mxGeometry y="26" width="292" height="26" as="geometry" />
        </mxCell>
        <mxCell id="dILX5_WSjM38DmAovOwH-4" value="" style="line;strokeWidth=1;fillColor=none;align=left;verticalAlign=middle;spacingTop=-1;spacingLeft=3;spacingRight=3;rotatable=0;labelPosition=right;points=[];portConstraint=eastwest;strokeColor=inherit;" parent="dILX5_WSjM38DmAovOwH-3" vertex="1">
          <mxGeometry y="52" width="292" height="8" as="geometry" />
        </mxCell>
        <mxCell id="dILX5_WSjM38DmAovOwH-5" value="+ login(document: String, password: String): Boolean" style="text;strokeColor=none;fillColor=none;align=left;verticalAlign=top;spacingLeft=4;spacingRight=4;overflow=hidden;rotatable=0;points=[[0,0.5],[1,0.5]];portConstraint=eastwest;whiteSpace=wrap;html=1;fontStyle=4" parent="dILX5_WSjM38DmAovOwH-3" vertex="1">
          <mxGeometry y="60" width="292" height="26" as="geometry" />
        </mxCell>
        <mxCell id="dILX5_WSjM38DmAovOwH-6" value="+ logout()" style="text;strokeColor=none;fillColor=none;align=left;verticalAlign=top;spacingLeft=4;spacingRight=4;overflow=hidden;rotatable=0;points=[[0,0.5],[1,0.5]];portConstraint=eastwest;whiteSpace=wrap;html=1;fontStyle=4" parent="dILX5_WSjM38DmAovOwH-3" vertex="1">
          <mxGeometry y="86" width="292" height="26" as="geometry" />
        </mxCell>
        <mxCell id="dILX5_WSjM38DmAovOwH-7" value="+ getUser(): User" style="text;strokeColor=none;fillColor=none;align=left;verticalAlign=top;spacingLeft=4;spacingRight=4;overflow=hidden;rotatable=0;points=[[0,0.5],[1,0.5]];portConstraint=eastwest;whiteSpace=wrap;html=1;fontStyle=4" parent="dILX5_WSjM38DmAovOwH-3" vertex="1">
          <mxGeometry y="112" width="292" height="26" as="geometry" />
        </mxCell>
        <mxCell id="dILX5_WSjM38DmAovOwH-8" value="UserService" style="swimlane;fontStyle=1;align=center;verticalAlign=top;childLayout=stackLayout;horizontal=1;startSize=26;horizontalStack=0;resizeParent=1;resizeParentMax=0;resizeLast=0;collapsible=1;marginBottom=0;whiteSpace=wrap;html=1;" parent="dILX5_WSjM38DmAovOwH-1" vertex="1">
          <mxGeometry x="417" y="55.5" width="292" height="151" as="geometry" />
        </mxCell>
        <mxCell id="dILX5_WSjM38DmAovOwH-9" value="" style="line;strokeWidth=1;fillColor=none;align=left;verticalAlign=middle;spacingTop=-1;spacingLeft=3;spacingRight=3;rotatable=0;labelPosition=right;points=[];portConstraint=eastwest;strokeColor=inherit;" parent="dILX5_WSjM38DmAovOwH-8" vertex="1">
          <mxGeometry y="26" width="292" height="8" as="geometry" />
        </mxCell>
        <mxCell id="dILX5_WSjM38DmAovOwH-10" value="+ create(name: String, document: String, password: String, age: Integer, email: String): Boolean" style="text;strokeColor=none;fillColor=none;align=left;verticalAlign=top;spacingLeft=4;spacingRight=4;overflow=hidden;rotatable=0;points=[[0,0.5],[1,0.5]];portConstraint=eastwest;whiteSpace=wrap;html=1;fontStyle=4" parent="dILX5_WSjM38DmAovOwH-8" vertex="1">
          <mxGeometry y="34" width="292" height="39" as="geometry" />
        </mxCell>
        <mxCell id="dILX5_WSjM38DmAovOwH-25" value="+ updateLogged()" style="text;strokeColor=none;fillColor=none;align=left;verticalAlign=top;spacingLeft=4;spacingRight=4;overflow=hidden;rotatable=0;points=[[0,0.5],[1,0.5]];portConstraint=eastwest;whiteSpace=wrap;html=1;fontStyle=4" parent="dILX5_WSjM38DmAovOwH-8" vertex="1">
          <mxGeometry y="73" width="292" height="26" as="geometry" />
        </mxCell>
        <mxCell id="dILX5_WSjM38DmAovOwH-11" value="+ isClient(): Boolean" style="text;strokeColor=none;fillColor=none;align=left;verticalAlign=top;spacingLeft=4;spacingRight=4;overflow=hidden;rotatable=0;points=[[0,0.5],[1,0.5]];portConstraint=eastwest;whiteSpace=wrap;html=1;fontStyle=4" parent="dILX5_WSjM38DmAovOwH-8" vertex="1">
          <mxGeometry y="99" width="292" height="26" as="geometry" />
        </mxCell>
        <mxCell id="dILX5_WSjM38DmAovOwH-12" value="+ isEmployee(): Boolean" style="text;strokeColor=none;fillColor=none;align=left;verticalAlign=top;spacingLeft=4;spacingRight=4;overflow=hidden;rotatable=0;points=[[0,0.5],[1,0.5]];portConstraint=eastwest;whiteSpace=wrap;html=1;fontStyle=4" parent="dILX5_WSjM38DmAovOwH-8" vertex="1">
          <mxGeometry y="125" width="292" height="26" as="geometry" />
        </mxCell>
        <mxCell id="dILX5_WSjM38DmAovOwH-13" value="AccountService" style="swimlane;fontStyle=1;align=center;verticalAlign=top;childLayout=stackLayout;horizontal=1;startSize=26;horizontalStack=0;resizeParent=1;resizeParentMax=0;resizeLast=0;collapsible=1;marginBottom=0;whiteSpace=wrap;html=1;" parent="dILX5_WSjM38DmAovOwH-1" vertex="1">
          <mxGeometry x="422" y="354" width="292" height="191" as="geometry" />
        </mxCell>
        <mxCell id="dILX5_WSjM38DmAovOwH-14" value="" style="line;strokeWidth=1;fillColor=none;align=left;verticalAlign=middle;spacingTop=-1;spacingLeft=3;spacingRight=3;rotatable=0;labelPosition=right;points=[];portConstraint=eastwest;strokeColor=inherit;" parent="dILX5_WSjM38DmAovOwH-13" vertex="1">
          <mxGeometry y="26" width="292" height="8" as="geometry" />
        </mxCell>
        <mxCell id="dILX5_WSjM38DmAovOwH-26" value="- getNewAccountId(): Long" style="text;strokeColor=none;fillColor=none;align=left;verticalAlign=top;spacingLeft=4;spacingRight=4;overflow=hidden;rotatable=0;points=[[0,0.5],[1,0.5]];portConstraint=eastwest;whiteSpace=wrap;html=1;fontStyle=4" parent="dILX5_WSjM38DmAovOwH-13" vertex="1">
          <mxGeometry y="34" width="292" height="26" as="geometry" />
        </mxCell>
        <mxCell id="dILX5_WSjM38DmAovOwH-15" value="- createAccount(accountType: Class)" style="text;strokeColor=none;fillColor=none;align=left;verticalAlign=top;spacingLeft=4;spacingRight=4;overflow=hidden;rotatable=0;points=[[0,0.5],[1,0.5]];portConstraint=eastwest;whiteSpace=wrap;html=1;fontStyle=4" parent="dILX5_WSjM38DmAovOwH-13" vertex="1">
          <mxGeometry y="60" width="292" height="27" as="geometry" />
        </mxCell>
        <mxCell id="dILX5_WSjM38DmAovOwH-16" value="+ createCurrentAccount()" style="text;strokeColor=none;fillColor=none;align=left;verticalAlign=top;spacingLeft=4;spacingRight=4;overflow=hidden;rotatable=0;points=[[0,0.5],[1,0.5]];portConstraint=eastwest;whiteSpace=wrap;html=1;fontStyle=4" parent="dILX5_WSjM38DmAovOwH-13" vertex="1">
          <mxGeometry y="87" width="292" height="26" as="geometry" />
        </mxCell>
        <mxCell id="dILX5_WSjM38DmAovOwH-17" value="+ createCryptoAccount()" style="text;strokeColor=none;fillColor=none;align=left;verticalAlign=top;spacingLeft=4;spacingRight=4;overflow=hidden;rotatable=0;points=[[0,0.5],[1,0.5]];portConstraint=eastwest;whiteSpace=wrap;html=1;fontStyle=4" parent="dILX5_WSjM38DmAovOwH-13" vertex="1">
          <mxGeometry y="113" width="292" height="26" as="geometry" />
        </mxCell>
        <mxCell id="dILX5_WSjM38DmAovOwH-28" value="+ hasAccounts(): Boolean" style="text;strokeColor=none;fillColor=none;align=left;verticalAlign=top;spacingLeft=4;spacingRight=4;overflow=hidden;rotatable=0;points=[[0,0.5],[1,0.5]];portConstraint=eastwest;whiteSpace=wrap;html=1;fontStyle=4" parent="dILX5_WSjM38DmAovOwH-13" vertex="1">
          <mxGeometry y="139" width="292" height="26" as="geometry" />
        </mxCell>
        <mxCell id="dILX5_WSjM38DmAovOwH-21" value="+ getAccounts(): List&amp;lt;Account&amp;gt;" style="text;strokeColor=none;fillColor=none;align=left;verticalAlign=top;spacingLeft=4;spacingRight=4;overflow=hidden;rotatable=0;points=[[0,0.5],[1,0.5]];portConstraint=eastwest;whiteSpace=wrap;html=1;fontStyle=4" parent="dILX5_WSjM38DmAovOwH-13" vertex="1">
          <mxGeometry y="165" width="292" height="26" as="geometry" />
        </mxCell>
        <mxCell id="dILX5_WSjM38DmAovOwH-29" value="BalancesService" style="swimlane;fontStyle=1;align=center;verticalAlign=top;childLayout=stackLayout;horizontal=1;startSize=26;horizontalStack=0;resizeParent=1;resizeParentMax=0;resizeLast=0;collapsible=1;marginBottom=0;whiteSpace=wrap;html=1;" parent="dILX5_WSjM38DmAovOwH-1" vertex="1">
          <mxGeometry x="790" y="354" width="341" height="191" as="geometry" />
        </mxCell>
        <mxCell id="dILX5_WSjM38DmAovOwH-30" value="" style="line;strokeWidth=1;fillColor=none;align=left;verticalAlign=middle;spacingTop=-1;spacingLeft=3;spacingRight=3;rotatable=0;labelPosition=right;points=[];portConstraint=eastwest;strokeColor=inherit;" parent="dILX5_WSjM38DmAovOwH-29" vertex="1">
          <mxGeometry y="26" width="341" height="8" as="geometry" />
        </mxCell>
        <mxCell id="dILX5_WSjM38DmAovOwH-31" value="+ getAllBalances(): Map&amp;lt;Currency, Double&amp;gt;" style="text;strokeColor=none;fillColor=none;align=left;verticalAlign=top;spacingLeft=4;spacingRight=4;overflow=hidden;rotatable=0;points=[[0,0.5],[1,0.5]];portConstraint=eastwest;whiteSpace=wrap;html=1;fontStyle=4" parent="dILX5_WSjM38DmAovOwH-29" vertex="1">
          <mxGeometry y="34" width="341" height="26" as="geometry" />
        </mxCell>
        <mxCell id="dILX5_WSjM38DmAovOwH-32" value="+ getFiatBalances(): Map&amp;lt;Currency, Double&amp;gt;" style="text;strokeColor=none;fillColor=none;align=left;verticalAlign=top;spacingLeft=4;spacingRight=4;overflow=hidden;rotatable=0;points=[[0,0.5],[1,0.5]];portConstraint=eastwest;whiteSpace=wrap;html=1;fontStyle=4" parent="dILX5_WSjM38DmAovOwH-29" vertex="1">
          <mxGeometry y="60" width="341" height="27" as="geometry" />
        </mxCell>
        <mxCell id="dILX5_WSjM38DmAovOwH-33" value="+ getCryptoBalances(): Map&amp;lt;Currency, Double&amp;gt;" style="text;strokeColor=none;fillColor=none;align=left;verticalAlign=top;spacingLeft=4;spacingRight=4;overflow=hidden;rotatable=0;points=[[0,0.5],[1,0.5]];portConstraint=eastwest;whiteSpace=wrap;html=1;fontStyle=4" parent="dILX5_WSjM38DmAovOwH-29" vertex="1">
          <mxGeometry y="87" width="341" height="26" as="geometry" />
        </mxCell>
        <mxCell id="dILX5_WSjM38DmAovOwH-34" value="+ updateFiatBalance(currency: Currency, amount: Double)" style="text;strokeColor=none;fillColor=none;align=left;verticalAlign=top;spacingLeft=4;spacingRight=4;overflow=hidden;rotatable=0;points=[[0,0.5],[1,0.5]];portConstraint=eastwest;whiteSpace=wrap;html=1;fontStyle=4" parent="dILX5_WSjM38DmAovOwH-29" vertex="1">
          <mxGeometry y="113" width="341" height="26" as="geometry" />
        </mxCell>
        <mxCell id="dILX5_WSjM38DmAovOwH-35" value="+ updateCryptoBalance(currency: Currency, amount: Double)" style="text;strokeColor=none;fillColor=none;align=left;verticalAlign=top;spacingLeft=4;spacingRight=4;overflow=hidden;rotatable=0;points=[[0,0.5],[1,0.5]];portConstraint=eastwest;whiteSpace=wrap;html=1;fontStyle=4" parent="dILX5_WSjM38DmAovOwH-29" vertex="1">
          <mxGeometry y="139" width="341" height="26" as="geometry" />
        </mxCell>
        <mxCell id="dILX5_WSjM38DmAovOwH-36" value="+ updateBalance(currency: Currency, amount: Double)" style="text;strokeColor=none;fillColor=none;align=left;verticalAlign=top;spacingLeft=4;spacingRight=4;overflow=hidden;rotatable=0;points=[[0,0.5],[1,0.5]];portConstraint=eastwest;whiteSpace=wrap;html=1;fontStyle=4" parent="dILX5_WSjM38DmAovOwH-29" vertex="1">
          <mxGeometry y="165" width="341" height="26" as="geometry" />
        </mxCell>
        <mxCell id="dILX5_WSjM38DmAovOwH-37" value="CurrencyService" style="swimlane;fontStyle=1;align=center;verticalAlign=top;childLayout=stackLayout;horizontal=1;startSize=26;horizontalStack=0;resizeParent=1;resizeParentMax=0;resizeLast=0;collapsible=1;marginBottom=0;whiteSpace=wrap;html=1;" parent="dILX5_WSjM38DmAovOwH-1" vertex="1">
          <mxGeometry x="421.5" y="568" width="293" height="270" as="geometry" />
        </mxCell>
        <mxCell id="dILX5_WSjM38DmAovOwH-38" value="" style="line;strokeWidth=1;fillColor=none;align=left;verticalAlign=middle;spacingTop=-1;spacingLeft=3;spacingRight=3;rotatable=0;labelPosition=right;points=[];portConstraint=eastwest;strokeColor=inherit;" parent="dILX5_WSjM38DmAovOwH-37" vertex="1">
          <mxGeometry y="26" width="293" height="8" as="geometry" />
        </mxCell>
        <mxCell id="dILX5_WSjM38DmAovOwH-39" value="+ addFiatCurrency(name: String, symbol: String, value: Double): Boolean" style="text;strokeColor=none;fillColor=none;align=left;verticalAlign=top;spacingLeft=4;spacingRight=4;overflow=hidden;rotatable=0;points=[[0,0.5],[1,0.5]];portConstraint=eastwest;whiteSpace=wrap;html=1;fontStyle=4" parent="dILX5_WSjM38DmAovOwH-37" vertex="1">
          <mxGeometry y="34" width="293" height="40" as="geometry" />
        </mxCell>
        <mxCell id="dILX5_WSjM38DmAovOwH-40" value="+ addCryptoCurrency(name: String, symbol: String, value: Double, supplyMaximum: Double): Boolean" style="text;strokeColor=none;fillColor=none;align=left;verticalAlign=top;spacingLeft=4;spacingRight=4;overflow=hidden;rotatable=0;points=[[0,0.5],[1,0.5]];portConstraint=eastwest;whiteSpace=wrap;html=1;fontStyle=4" parent="dILX5_WSjM38DmAovOwH-37" vertex="1">
          <mxGeometry y="74" width="293" height="40" as="geometry" />
        </mxCell>
        <mxCell id="dILX5_WSjM38DmAovOwH-41" value="+ getAll(): List&amp;lt;Currency&amp;gt;" style="text;strokeColor=none;fillColor=none;align=left;verticalAlign=top;spacingLeft=4;spacingRight=4;overflow=hidden;rotatable=0;points=[[0,0.5],[1,0.5]];portConstraint=eastwest;whiteSpace=wrap;html=1;fontStyle=4" parent="dILX5_WSjM38DmAovOwH-37" vertex="1">
          <mxGeometry y="114" width="293" height="26" as="geometry" />
        </mxCell>
        <mxCell id="dILX5_WSjM38DmAovOwH-42" value="+ getAllDifferent(different: Currency): List&amp;lt;Currency&amp;gt;" style="text;strokeColor=none;fillColor=none;align=left;verticalAlign=top;spacingLeft=4;spacingRight=4;overflow=hidden;rotatable=0;points=[[0,0.5],[1,0.5]];portConstraint=eastwest;whiteSpace=wrap;html=1;fontStyle=4" parent="dILX5_WSjM38DmAovOwH-37" vertex="1">
          <mxGeometry y="140" width="293" height="26" as="geometry" />
        </mxCell>
        <mxCell id="dILX5_WSjM38DmAovOwH-43" value="+ getFiatCurrencies(): List&amp;lt;Currency&amp;gt;" style="text;strokeColor=none;fillColor=none;align=left;verticalAlign=top;spacingLeft=4;spacingRight=4;overflow=hidden;rotatable=0;points=[[0,0.5],[1,0.5]];portConstraint=eastwest;whiteSpace=wrap;html=1;fontStyle=4" parent="dILX5_WSjM38DmAovOwH-37" vertex="1">
          <mxGeometry y="166" width="293" height="26" as="geometry" />
        </mxCell>
        <mxCell id="dILX5_WSjM38DmAovOwH-44" value="+ updateCurrency(currency: Currency)" style="text;strokeColor=none;fillColor=none;align=left;verticalAlign=top;spacingLeft=4;spacingRight=4;overflow=hidden;rotatable=0;points=[[0,0.5],[1,0.5]];portConstraint=eastwest;whiteSpace=wrap;html=1;fontStyle=4" parent="dILX5_WSjM38DmAovOwH-37" vertex="1">
          <mxGeometry y="192" width="293" height="26" as="geometry" />
        </mxCell>
        <mxCell id="dILX5_WSjM38DmAovOwH-45" value="&lt;span style=&quot;text-decoration-line: underline;&quot;&gt;+ searchCurrency(name: String): Boolean&lt;/span&gt;" style="text;strokeColor=none;fillColor=none;align=left;verticalAlign=top;spacingLeft=4;spacingRight=4;overflow=hidden;rotatable=0;points=[[0,0.5],[1,0.5]];portConstraint=eastwest;whiteSpace=wrap;html=1;" parent="dILX5_WSjM38DmAovOwH-37" vertex="1">
          <mxGeometry y="218" width="293" height="26" as="geometry" />
        </mxCell>
        <mxCell id="dILX5_WSjM38DmAovOwH-46" value="+ removeCurrency(name: String): Boolean" style="text;strokeColor=none;fillColor=none;align=left;verticalAlign=top;spacingLeft=4;spacingRight=4;overflow=hidden;rotatable=0;points=[[0,0.5],[1,0.5]];portConstraint=eastwest;whiteSpace=wrap;html=1;fontStyle=4" parent="dILX5_WSjM38DmAovOwH-37" vertex="1">
          <mxGeometry y="244" width="293" height="26" as="geometry" />
        </mxCell>
        <mxCell id="dILX5_WSjM38DmAovOwH-56" value="EmployeeService" style="swimlane;fontStyle=1;align=center;verticalAlign=top;childLayout=stackLayout;horizontal=1;startSize=26;horizontalStack=0;resizeParent=1;resizeParentMax=0;resizeLast=0;collapsible=1;marginBottom=0;whiteSpace=wrap;html=1;" parent="dILX5_WSjM38DmAovOwH-1" vertex="1">
          <mxGeometry x="790" y="53" width="292" height="270" as="geometry" />
        </mxCell>
        <mxCell id="dILX5_WSjM38DmAovOwH-62" value="- employee: Employee" style="text;strokeColor=none;fillColor=none;align=left;verticalAlign=top;spacingLeft=4;spacingRight=4;overflow=hidden;rotatable=0;points=[[0,0.5],[1,0.5]];portConstraint=eastwest;whiteSpace=wrap;html=1;fontStyle=4" parent="dILX5_WSjM38DmAovOwH-56" vertex="1">
          <mxGeometry y="26" width="292" height="26" as="geometry" />
        </mxCell>
        <mxCell id="dILX5_WSjM38DmAovOwH-57" value="" style="line;strokeWidth=1;fillColor=none;align=left;verticalAlign=middle;spacingTop=-1;spacingLeft=3;spacingRight=3;rotatable=0;labelPosition=right;points=[];portConstraint=eastwest;strokeColor=inherit;" parent="dILX5_WSjM38DmAovOwH-56" vertex="1">
          <mxGeometry y="52" width="292" height="8" as="geometry" />
        </mxCell>
        <mxCell id="dILX5_WSjM38DmAovOwH-58" value="+ create(userDocument: String, career: Career, salary: Float): Boolean" style="text;strokeColor=none;fillColor=none;align=left;verticalAlign=top;spacingLeft=4;spacingRight=4;overflow=hidden;rotatable=0;points=[[0,0.5],[1,0.5]];portConstraint=eastwest;whiteSpace=wrap;html=1;fontStyle=4" parent="dILX5_WSjM38DmAovOwH-56" vertex="1">
          <mxGeometry y="60" width="292" height="39" as="geometry" />
        </mxCell>
        <mxCell id="dILX5_WSjM38DmAovOwH-59" value="+ searchEmployee(document: String): Boolean" style="text;strokeColor=none;fillColor=none;align=left;verticalAlign=top;spacingLeft=4;spacingRight=4;overflow=hidden;rotatable=0;points=[[0,0.5],[1,0.5]];portConstraint=eastwest;whiteSpace=wrap;html=1;fontStyle=4" parent="dILX5_WSjM38DmAovOwH-56" vertex="1">
          <mxGeometry y="99" width="292" height="26" as="geometry" />
        </mxCell>
        <mxCell id="dILX5_WSjM38DmAovOwH-60" value="+ searchCareer(title: String): Boolean" style="text;strokeColor=none;fillColor=none;align=left;verticalAlign=top;spacingLeft=4;spacingRight=4;overflow=hidden;rotatable=0;points=[[0,0.5],[1,0.5]];portConstraint=eastwest;whiteSpace=wrap;html=1;fontStyle=4" parent="dILX5_WSjM38DmAovOwH-56" vertex="1">
          <mxGeometry y="125" width="292" height="26" as="geometry" />
        </mxCell>
        <mxCell id="dILX5_WSjM38DmAovOwH-61" value="+ validSalary(salary: Float): Boolean" style="text;strokeColor=none;fillColor=none;align=left;verticalAlign=top;spacingLeft=4;spacingRight=4;overflow=hidden;rotatable=0;points=[[0,0.5],[1,0.5]];portConstraint=eastwest;whiteSpace=wrap;html=1;fontStyle=4" parent="dILX5_WSjM38DmAovOwH-56" vertex="1">
          <mxGeometry y="151" width="292" height="26" as="geometry" />
        </mxCell>
        <mxCell id="dILX5_WSjM38DmAovOwH-63" value="&lt;span style=&quot;text-decoration-line: underline;&quot;&gt;+ updateInfo(document: String,&amp;nbsp;&lt;/span&gt;&lt;span style=&quot;text-decoration-line: underline;&quot;&gt;salary: Float,&lt;/span&gt;&lt;span style=&quot;text-decoration-line: underline;&quot;&gt;&amp;nbsp;career: Career): Boolean&lt;/span&gt;" style="text;strokeColor=none;fillColor=none;align=left;verticalAlign=top;spacingLeft=4;spacingRight=4;overflow=hidden;rotatable=0;points=[[0,0.5],[1,0.5]];portConstraint=eastwest;whiteSpace=wrap;html=1;" parent="dILX5_WSjM38DmAovOwH-56" vertex="1">
          <mxGeometry y="177" width="292" height="41" as="geometry" />
        </mxCell>
        <mxCell id="dILX5_WSjM38DmAovOwH-64" value="+ showEmployeeInfo(document: String)" style="text;strokeColor=none;fillColor=none;align=left;verticalAlign=top;spacingLeft=4;spacingRight=4;overflow=hidden;rotatable=0;points=[[0,0.5],[1,0.5]];portConstraint=eastwest;whiteSpace=wrap;html=1;fontStyle=4" parent="dILX5_WSjM38DmAovOwH-56" vertex="1">
          <mxGeometry y="218" width="292" height="26" as="geometry" />
        </mxCell>
        <mxCell id="dILX5_WSjM38DmAovOwH-65" value="&lt;span style=&quot;text-decoration-line: underline;&quot;&gt;+ showCurrencyInfo(name: String)&lt;/span&gt;" style="text;strokeColor=none;fillColor=none;align=left;verticalAlign=top;spacingLeft=4;spacingRight=4;overflow=hidden;rotatable=0;points=[[0,0.5],[1,0.5]];portConstraint=eastwest;whiteSpace=wrap;html=1;" parent="dILX5_WSjM38DmAovOwH-56" vertex="1">
          <mxGeometry y="244" width="292" height="26" as="geometry" />
        </mxCell>
        <mxCell id="dILX5_WSjM38DmAovOwH-66" value="HistoryService" style="swimlane;fontStyle=1;align=center;verticalAlign=top;childLayout=stackLayout;horizontal=1;startSize=26;horizontalStack=0;resizeParent=1;resizeParentMax=0;resizeLast=0;collapsible=1;marginBottom=0;whiteSpace=wrap;html=1;" parent="dILX5_WSjM38DmAovOwH-1" vertex="1">
          <mxGeometry x="790" y="568" width="341" height="193" as="geometry" />
        </mxCell>
        <mxCell id="dILX5_WSjM38DmAovOwH-67" value="" style="line;strokeWidth=1;fillColor=none;align=left;verticalAlign=middle;spacingTop=-1;spacingLeft=3;spacingRight=3;rotatable=0;labelPosition=right;points=[];portConstraint=eastwest;strokeColor=inherit;" parent="dILX5_WSjM38DmAovOwH-66" vertex="1">
          <mxGeometry y="26" width="341" height="8" as="geometry" />
        </mxCell>
        <mxCell id="dILX5_WSjM38DmAovOwH-68" value="- getAllWithFilter(filter: Predicate&amp;lt;Transaction&amp;gt;): List&amp;lt;Transaction&amp;gt;" style="text;strokeColor=none;fillColor=none;align=left;verticalAlign=top;spacingLeft=4;spacingRight=4;overflow=hidden;rotatable=0;points=[[0,0.5],[1,0.5]];portConstraint=eastwest;whiteSpace=wrap;html=1;fontStyle=4" parent="dILX5_WSjM38DmAovOwH-66" vertex="1">
          <mxGeometry y="34" width="341" height="40" as="geometry" />
        </mxCell>
        <mxCell id="dILX5_WSjM38DmAovOwH-69" value="+ getAll(): List&amp;lt;Transaction&amp;gt;" style="text;strokeColor=none;fillColor=none;align=left;verticalAlign=top;spacingLeft=4;spacingRight=4;overflow=hidden;rotatable=0;points=[[0,0.5],[1,0.5]];portConstraint=eastwest;whiteSpace=wrap;html=1;fontStyle=4" parent="dILX5_WSjM38DmAovOwH-66" vertex="1">
          <mxGeometry y="74" width="341" height="27" as="geometry" />
        </mxCell>
        <mxCell id="dILX5_WSjM38DmAovOwH-70" value="+ getAllWithMinimumDate(datetime: LocalDateTime): List&amp;lt;Transaction&amp;gt;" style="text;strokeColor=none;fillColor=none;align=left;verticalAlign=top;spacingLeft=4;spacingRight=4;overflow=hidden;rotatable=0;points=[[0,0.5],[1,0.5]];portConstraint=eastwest;whiteSpace=wrap;html=1;fontStyle=4" parent="dILX5_WSjM38DmAovOwH-66" vertex="1">
          <mxGeometry y="101" width="341" height="40" as="geometry" />
        </mxCell>
        <mxCell id="dILX5_WSjM38DmAovOwH-71" value="+ getCreditHistory(): List&amp;lt;Transaction&amp;gt;" style="text;strokeColor=none;fillColor=none;align=left;verticalAlign=top;spacingLeft=4;spacingRight=4;overflow=hidden;rotatable=0;points=[[0,0.5],[1,0.5]];portConstraint=eastwest;whiteSpace=wrap;html=1;fontStyle=4" parent="dILX5_WSjM38DmAovOwH-66" vertex="1">
          <mxGeometry y="141" width="341" height="26" as="geometry" />
        </mxCell>
        <mxCell id="dILX5_WSjM38DmAovOwH-72" value="+ getDebitHistory(): List&amp;lt;Transaction&amp;gt;" style="text;strokeColor=none;fillColor=none;align=left;verticalAlign=top;spacingLeft=4;spacingRight=4;overflow=hidden;rotatable=0;points=[[0,0.5],[1,0.5]];portConstraint=eastwest;whiteSpace=wrap;html=1;fontStyle=4" parent="dILX5_WSjM38DmAovOwH-66" vertex="1">
          <mxGeometry y="167" width="341" height="26" as="geometry" />
        </mxCell>
        <mxCell id="dILX5_WSjM38DmAovOwH-74" value="MoneyService" style="swimlane;fontStyle=1;align=center;verticalAlign=top;childLayout=stackLayout;horizontal=1;startSize=26;horizontalStack=0;resizeParent=1;resizeParentMax=0;resizeLast=0;collapsible=1;marginBottom=0;whiteSpace=wrap;html=1;" parent="dILX5_WSjM38DmAovOwH-1" vertex="1">
          <mxGeometry x="1177" y="354" width="341" height="86" as="geometry" />
        </mxCell>
        <mxCell id="dILX5_WSjM38DmAovOwH-75" value="" style="line;strokeWidth=1;fillColor=none;align=left;verticalAlign=middle;spacingTop=-1;spacingLeft=3;spacingRight=3;rotatable=0;labelPosition=right;points=[];portConstraint=eastwest;strokeColor=inherit;" parent="dILX5_WSjM38DmAovOwH-74" vertex="1">
          <mxGeometry y="26" width="341" height="8" as="geometry" />
        </mxCell>
        <mxCell id="dILX5_WSjM38DmAovOwH-76" value="+ transaction(currency: Currency, amount: Double): Boolean" style="text;strokeColor=none;fillColor=none;align=left;verticalAlign=top;spacingLeft=4;spacingRight=4;overflow=hidden;rotatable=0;points=[[0,0.5],[1,0.5]];portConstraint=eastwest;whiteSpace=wrap;html=1;fontStyle=4" parent="dILX5_WSjM38DmAovOwH-74" vertex="1">
          <mxGeometry y="34" width="341" height="26" as="geometry" />
        </mxCell>
        <mxCell id="hUwqi0uTFEetl4gtfKUe-1" value="+ validate(currency: Currency, amount: Double): Boolean" style="text;strokeColor=none;fillColor=none;align=left;verticalAlign=top;spacingLeft=4;spacingRight=4;overflow=hidden;rotatable=0;points=[[0,0.5],[1,0.5]];portConstraint=eastwest;whiteSpace=wrap;html=1;fontStyle=4" parent="dILX5_WSjM38DmAovOwH-74" vertex="1">
          <mxGeometry y="60" width="341" height="26" as="geometry" />
        </mxCell>
        <mxCell id="dILX5_WSjM38DmAovOwH-83" style="edgeStyle=orthogonalEdgeStyle;rounded=0;orthogonalLoop=1;jettySize=auto;html=1;exitX=1;exitY=0.5;exitDx=0;exitDy=0;entryX=0;entryY=0.5;entryDx=0;entryDy=0;fontSize=12;startSize=8;endSize=8;" parent="dILX5_WSjM38DmAovOwH-1" source="dILX5_WSjM38DmAovOwH-5" target="dILX5_WSjM38DmAovOwH-25" edge="1">
          <mxGeometry relative="1" as="geometry" />
        </mxCell>
        <mxCell id="dILX5_WSjM38DmAovOwH-84" style="edgeStyle=orthogonalEdgeStyle;rounded=0;orthogonalLoop=1;jettySize=auto;html=1;exitX=1;exitY=0.5;exitDx=0;exitDy=0;entryX=0;entryY=0.5;entryDx=0;entryDy=0;fontSize=12;startSize=8;endSize=8;" parent="dILX5_WSjM38DmAovOwH-1" source="dILX5_WSjM38DmAovOwH-5" target="dILX5_WSjM38DmAovOwH-16" edge="1">
          <mxGeometry relative="1" as="geometry" />
        </mxCell>
        <mxCell id="dILX5_WSjM38DmAovOwH-85" style="edgeStyle=orthogonalEdgeStyle;rounded=0;orthogonalLoop=1;jettySize=auto;html=1;exitX=1;exitY=0.5;exitDx=0;exitDy=0;entryX=0;entryY=0.5;entryDx=0;entryDy=0;fontSize=12;startSize=8;endSize=8;" parent="dILX5_WSjM38DmAovOwH-1" source="dILX5_WSjM38DmAovOwH-5" target="dILX5_WSjM38DmAovOwH-40" edge="1">
          <mxGeometry relative="1" as="geometry" />
        </mxCell>
        <mxCell id="dILX5_WSjM38DmAovOwH-86" style="edgeStyle=none;curved=1;rounded=0;orthogonalLoop=1;jettySize=auto;html=1;exitX=1;exitY=0.5;exitDx=0;exitDy=0;entryX=0;entryY=0.5;entryDx=0;entryDy=0;fontSize=12;startSize=8;endSize=8;" parent="dILX5_WSjM38DmAovOwH-1" source="dILX5_WSjM38DmAovOwH-25" target="dILX5_WSjM38DmAovOwH-58" edge="1">
          <mxGeometry relative="1" as="geometry" />
        </mxCell>
        <mxCell id="dILX5_WSjM38DmAovOwH-87" style="edgeStyle=none;curved=1;rounded=0;orthogonalLoop=1;jettySize=auto;html=1;exitX=1;exitY=0.5;exitDx=0;exitDy=0;entryX=0;entryY=0.5;entryDx=0;entryDy=0;fontSize=12;startSize=8;endSize=8;" parent="dILX5_WSjM38DmAovOwH-1" source="dILX5_WSjM38DmAovOwH-16" target="dILX5_WSjM38DmAovOwH-33" edge="1">
          <mxGeometry relative="1" as="geometry" />
        </mxCell>
        <mxCell id="dILX5_WSjM38DmAovOwH-88" style="edgeStyle=none;curved=1;rounded=0;orthogonalLoop=1;jettySize=auto;html=1;exitX=1;exitY=0.5;exitDx=0;exitDy=0;entryX=0;entryY=0.5;entryDx=0;entryDy=0;fontSize=12;startSize=8;endSize=8;" parent="dILX5_WSjM38DmAovOwH-1" source="dILX5_WSjM38DmAovOwH-40" target="dILX5_WSjM38DmAovOwH-69" edge="1">
          <mxGeometry relative="1" as="geometry" />
        </mxCell>
        <mxCell id="dILX5_WSjM38DmAovOwH-89" style="edgeStyle=none;curved=1;rounded=0;orthogonalLoop=1;jettySize=auto;html=1;exitX=1;exitY=0.5;exitDx=0;exitDy=0;entryX=0;entryY=0.5;entryDx=0;entryDy=0;fontSize=12;startSize=8;endSize=8;" parent="dILX5_WSjM38DmAovOwH-1" source="dILX5_WSjM38DmAovOwH-31" target="dILX5_WSjM38DmAovOwH-76" edge="1">
          <mxGeometry relative="1" as="geometry" />
        </mxCell>
        <mxCell id="hUwqi0uTFEetl4gtfKUe-2" value="CryptoTransferService" style="swimlane;fontStyle=1;align=center;verticalAlign=top;childLayout=stackLayout;horizontal=1;startSize=26;horizontalStack=0;resizeParent=1;resizeParentMax=0;resizeLast=0;collapsible=1;marginBottom=0;whiteSpace=wrap;html=1;" parent="dILX5_WSjM38DmAovOwH-1" vertex="1">
          <mxGeometry x="1174" y="459" width="341" height="74" as="geometry" />
        </mxCell>
        <mxCell id="hUwqi0uTFEetl4gtfKUe-3" value="" style="line;strokeWidth=1;fillColor=none;align=left;verticalAlign=middle;spacingTop=-1;spacingLeft=3;spacingRight=3;rotatable=0;labelPosition=right;points=[];portConstraint=eastwest;strokeColor=inherit;" parent="hUwqi0uTFEetl4gtfKUe-2" vertex="1">
          <mxGeometry y="26" width="341" height="8" as="geometry" />
        </mxCell>
        <mxCell id="hUwqi0uTFEetl4gtfKUe-4" value="+ transfer(accountId: String, currency: Currency, amount: Double): Boolean" style="text;strokeColor=none;fillColor=none;align=left;verticalAlign=top;spacingLeft=4;spacingRight=4;overflow=hidden;rotatable=0;points=[[0,0.5],[1,0.5]];portConstraint=eastwest;whiteSpace=wrap;html=1;fontStyle=4" parent="hUwqi0uTFEetl4gtfKUe-2" vertex="1">
          <mxGeometry y="34" width="341" height="40" as="geometry" />
        </mxCell>
        <mxCell id="hUwqi0uTFEetl4gtfKUe-13" style="edgeStyle=orthogonalEdgeStyle;rounded=0;orthogonalLoop=1;jettySize=auto;html=1;exitX=1;exitY=0.5;exitDx=0;exitDy=0;entryX=0;entryY=0.5;entryDx=0;entryDy=0;" parent="dILX5_WSjM38DmAovOwH-1" source="dILX5_WSjM38DmAovOwH-31" target="hUwqi0uTFEetl4gtfKUe-4" edge="1">
          <mxGeometry relative="1" as="geometry" />
        </mxCell>
        <mxCell id="dILX5_WSjM38DmAovOwH-27" style="edgeStyle=none;curved=1;rounded=0;orthogonalLoop=1;jettySize=auto;html=1;entryX=0;entryY=0;entryDx=0;entryDy=278.5;entryPerimeter=0;fontSize=12;startSize=8;endSize=8;startArrow=classic;startFill=1;endArrow=none;endFill=0;" parent="1" source="5ARbzsG06lUM21EcvZRN-1" target="dILX5_WSjM38DmAovOwH-1" edge="1">
          <mxGeometry relative="1" as="geometry" />
        </mxCell>
        <mxCell id="dILX5_WSjM38DmAovOwH-108" style="edgeStyle=none;curved=1;rounded=0;orthogonalLoop=1;jettySize=auto;html=1;exitX=0;exitY=0;exitDx=824.5;exitDy=30;exitPerimeter=0;entryX=0.5;entryY=1;entryDx=0;entryDy=0;entryPerimeter=0;fontSize=12;startSize=8;endSize=8;startArrow=classic;startFill=1;endArrow=none;endFill=0;" parent="1" source="dILX5_WSjM38DmAovOwH-1" target="dILX5_WSjM38DmAovOwH-90" edge="1">
          <mxGeometry relative="1" as="geometry" />
        </mxCell>
        <mxCell id="dILX5_WSjM38DmAovOwH-132" value="TransferView" style="swimlane;fontStyle=1;align=center;verticalAlign=top;childLayout=stackLayout;horizontal=1;startSize=26;horizontalStack=0;resizeParent=1;resizeParentMax=0;resizeLast=0;collapsible=1;marginBottom=0;whiteSpace=wrap;html=1;" parent="1" vertex="1">
          <mxGeometry x="1759" y="-541" width="160" height="34" as="geometry" />
        </mxCell>
        <mxCell id="dILX5_WSjM38DmAovOwH-133" value="" style="line;strokeWidth=1;fillColor=none;align=left;verticalAlign=middle;spacingTop=-1;spacingLeft=3;spacingRight=3;rotatable=0;labelPosition=right;points=[];portConstraint=eastwest;strokeColor=inherit;" parent="dILX5_WSjM38DmAovOwH-132" vertex="1">
          <mxGeometry y="26" width="160" height="8" as="geometry" />
        </mxCell>
        <mxCell id="dILX5_WSjM38DmAovOwH-152" style="edgeStyle=orthogonalEdgeStyle;rounded=0;orthogonalLoop=1;jettySize=auto;html=1;exitX=1;exitY=0.5;exitDx=0;exitDy=0;entryX=0;entryY=0.5;entryDx=0;entryDy=0;fontSize=12;startSize=8;endSize=8;startArrow=block;startFill=0;endArrow=none;endFill=0;" parent="1" source="dILX5_WSjM38DmAovOwH-105" target="dILX5_WSjM38DmAovOwH-132" edge="1">
          <mxGeometry relative="1" as="geometry" />
        </mxCell>
        <mxCell id="dILX5_WSjM38DmAovOwH-90" value="view" style="shape=folder;fontStyle=1;tabWidth=110;tabHeight=30;tabPosition=left;html=1;boundedLbl=1;labelInHeader=1;container=1;collapsible=0;whiteSpace=wrap;" parent="1" vertex="1">
          <mxGeometry x="1002" y="-1111" width="1074" height="778" as="geometry" />
        </mxCell>
        <mxCell id="dILX5_WSjM38DmAovOwH-157" style="edgeStyle=orthogonalEdgeStyle;rounded=0;orthogonalLoop=1;jettySize=auto;html=1;entryX=1;entryY=0.5;entryDx=0;entryDy=0;fontSize=12;startSize=8;endSize=8;startArrow=block;startFill=0;endArrow=none;endFill=0;" parent="dILX5_WSjM38DmAovOwH-90" source="dILX5_WSjM38DmAovOwH-104" target="dILX5_WSjM38DmAovOwH-128" edge="1">
          <mxGeometry relative="1" as="geometry" />
        </mxCell>
        <mxCell id="dILX5_WSjM38DmAovOwH-91" value="" style="html=1;strokeColor=none;resizeWidth=1;resizeHeight=1;fillColor=none;part=1;connectable=0;allowArrows=0;deletable=0;whiteSpace=wrap;" parent="dILX5_WSjM38DmAovOwH-90" vertex="1">
          <mxGeometry width="1074" height="544.6" relative="1" as="geometry">
            <mxPoint y="30" as="offset" />
          </mxGeometry>
        </mxCell>
        <mxCell id="dILX5_WSjM38DmAovOwH-144" style="edgeStyle=orthogonalEdgeStyle;rounded=0;orthogonalLoop=1;jettySize=auto;html=1;exitX=0.5;exitY=0;exitDx=0;exitDy=0;entryX=0.5;entryY=1;entryDx=0;entryDy=0;fontSize=12;startSize=8;endSize=8;startArrow=block;startFill=0;endArrow=none;endFill=0;" parent="dILX5_WSjM38DmAovOwH-90" source="dILX5_WSjM38DmAovOwH-104" target="dILX5_WSjM38DmAovOwH-114" edge="1">
          <mxGeometry relative="1" as="geometry" />
        </mxCell>
        <mxCell id="dILX5_WSjM38DmAovOwH-145" style="edgeStyle=orthogonalEdgeStyle;rounded=0;orthogonalLoop=1;jettySize=auto;html=1;exitX=0.5;exitY=0;exitDx=0;exitDy=0;entryX=0.5;entryY=1;entryDx=0;entryDy=0;fontSize=12;startSize=8;endSize=8;startArrow=block;startFill=0;endArrow=none;endFill=0;" parent="dILX5_WSjM38DmAovOwH-90" source="dILX5_WSjM38DmAovOwH-104" target="dILX5_WSjM38DmAovOwH-118" edge="1">
          <mxGeometry relative="1" as="geometry" />
        </mxCell>
        <mxCell id="dILX5_WSjM38DmAovOwH-146" style="edgeStyle=orthogonalEdgeStyle;rounded=0;orthogonalLoop=1;jettySize=auto;html=1;exitX=0.5;exitY=0;exitDx=0;exitDy=0;entryX=0.5;entryY=1;entryDx=0;entryDy=0;fontSize=12;startSize=8;endSize=8;startArrow=block;startFill=0;endArrow=none;endFill=0;" parent="dILX5_WSjM38DmAovOwH-90" source="dILX5_WSjM38DmAovOwH-104" target="dILX5_WSjM38DmAovOwH-120" edge="1">
          <mxGeometry relative="1" as="geometry" />
        </mxCell>
        <mxCell id="dILX5_WSjM38DmAovOwH-147" style="edgeStyle=orthogonalEdgeStyle;rounded=0;orthogonalLoop=1;jettySize=auto;html=1;exitX=0.5;exitY=0;exitDx=0;exitDy=0;entryX=0.5;entryY=1;entryDx=0;entryDy=0;fontSize=12;startSize=8;endSize=8;startArrow=block;startFill=0;endArrow=none;endFill=0;" parent="dILX5_WSjM38DmAovOwH-90" source="dILX5_WSjM38DmAovOwH-104" target="dILX5_WSjM38DmAovOwH-142" edge="1">
          <mxGeometry relative="1" as="geometry" />
        </mxCell>
        <mxCell id="dILX5_WSjM38DmAovOwH-153" style="edgeStyle=orthogonalEdgeStyle;rounded=0;orthogonalLoop=1;jettySize=auto;html=1;entryX=0.5;entryY=0;entryDx=0;entryDy=0;fontSize=12;startSize=8;endSize=8;startArrow=block;startFill=0;endArrow=none;endFill=0;" parent="dILX5_WSjM38DmAovOwH-90" source="dILX5_WSjM38DmAovOwH-104" target="dILX5_WSjM38DmAovOwH-134" edge="1">
          <mxGeometry relative="1" as="geometry" />
        </mxCell>
        <mxCell id="dILX5_WSjM38DmAovOwH-154" style="edgeStyle=orthogonalEdgeStyle;rounded=0;orthogonalLoop=1;jettySize=auto;html=1;entryX=0.5;entryY=0;entryDx=0;entryDy=0;fontSize=12;startSize=8;endSize=8;startArrow=block;startFill=0;endArrow=none;endFill=0;" parent="dILX5_WSjM38DmAovOwH-90" source="dILX5_WSjM38DmAovOwH-104" target="dILX5_WSjM38DmAovOwH-136" edge="1">
          <mxGeometry relative="1" as="geometry" />
        </mxCell>
        <mxCell id="dILX5_WSjM38DmAovOwH-155" style="edgeStyle=orthogonalEdgeStyle;rounded=0;orthogonalLoop=1;jettySize=auto;html=1;entryX=0.5;entryY=0;entryDx=0;entryDy=0;fontSize=12;startSize=8;endSize=8;startArrow=block;startFill=0;endArrow=none;endFill=0;" parent="dILX5_WSjM38DmAovOwH-90" source="dILX5_WSjM38DmAovOwH-104" target="dILX5_WSjM38DmAovOwH-140" edge="1">
          <mxGeometry relative="1" as="geometry" />
        </mxCell>
        <mxCell id="dILX5_WSjM38DmAovOwH-156" style="edgeStyle=orthogonalEdgeStyle;rounded=0;orthogonalLoop=1;jettySize=auto;html=1;entryX=1;entryY=0.5;entryDx=0;entryDy=0;fontSize=12;startSize=8;endSize=8;startArrow=block;startFill=0;endArrow=none;endFill=0;" parent="dILX5_WSjM38DmAovOwH-90" source="dILX5_WSjM38DmAovOwH-104" target="dILX5_WSjM38DmAovOwH-124" edge="1">
          <mxGeometry relative="1" as="geometry" />
        </mxCell>
        <mxCell id="dILX5_WSjM38DmAovOwH-104" value="&lt;i&gt;AbstractView&lt;/i&gt;" style="swimlane;fontStyle=1;align=center;verticalAlign=top;childLayout=stackLayout;horizontal=1;startSize=26;horizontalStack=0;resizeParent=1;resizeParentMax=0;resizeLast=0;collapsible=1;marginBottom=0;whiteSpace=wrap;html=1;" parent="dILX5_WSjM38DmAovOwH-90" vertex="1">
          <mxGeometry x="552" y="341" width="160" height="86" as="geometry" />
        </mxCell>
        <mxCell id="dILX5_WSjM38DmAovOwH-105" value="# warning: String = null" style="text;strokeColor=none;fillColor=none;align=left;verticalAlign=top;spacingLeft=4;spacingRight=4;overflow=hidden;rotatable=0;points=[[0,0.5],[1,0.5]];portConstraint=eastwest;whiteSpace=wrap;html=1;" parent="dILX5_WSjM38DmAovOwH-104" vertex="1">
          <mxGeometry y="26" width="160" height="26" as="geometry" />
        </mxCell>
        <mxCell id="dILX5_WSjM38DmAovOwH-106" value="" style="line;strokeWidth=1;fillColor=none;align=left;verticalAlign=middle;spacingTop=-1;spacingLeft=3;spacingRight=3;rotatable=0;labelPosition=right;points=[];portConstraint=eastwest;strokeColor=inherit;" parent="dILX5_WSjM38DmAovOwH-104" vertex="1">
          <mxGeometry y="52" width="160" height="8" as="geometry" />
        </mxCell>
        <mxCell id="dILX5_WSjM38DmAovOwH-107" value="# title()" style="text;strokeColor=none;fillColor=none;align=left;verticalAlign=top;spacingLeft=4;spacingRight=4;overflow=hidden;rotatable=0;points=[[0,0.5],[1,0.5]];portConstraint=eastwest;whiteSpace=wrap;html=1;" parent="dILX5_WSjM38DmAovOwH-104" vertex="1">
          <mxGeometry y="60" width="160" height="26" as="geometry" />
        </mxCell>
        <mxCell id="dILX5_WSjM38DmAovOwH-109" style="edgeStyle=none;curved=1;rounded=0;orthogonalLoop=1;jettySize=auto;html=1;exitX=1;exitY=0.5;exitDx=0;exitDy=0;entryX=0;entryY=0.5;entryDx=0;entryDy=0;fontSize=12;startSize=8;endSize=8;startArrow=block;startFill=0;endArrow=none;endFill=0;" parent="dILX5_WSjM38DmAovOwH-90" source="dILX5_WSjM38DmAovOwH-94" target="dILX5_WSjM38DmAovOwH-105" edge="1">
          <mxGeometry relative="1" as="geometry" />
        </mxCell>
        <mxCell id="dILX5_WSjM38DmAovOwH-114" value="MainView" style="swimlane;fontStyle=1;align=center;verticalAlign=top;childLayout=stackLayout;horizontal=1;startSize=26;horizontalStack=0;resizeParent=1;resizeParentMax=0;resizeLast=0;collapsible=1;marginBottom=0;whiteSpace=wrap;html=1;" parent="dILX5_WSjM38DmAovOwH-90" vertex="1">
          <mxGeometry x="557" y="179" width="160" height="34" as="geometry" />
        </mxCell>
        <mxCell id="dILX5_WSjM38DmAovOwH-116" value="" style="line;strokeWidth=1;fillColor=none;align=left;verticalAlign=middle;spacingTop=-1;spacingLeft=3;spacingRight=3;rotatable=0;labelPosition=right;points=[];portConstraint=eastwest;strokeColor=inherit;" parent="dILX5_WSjM38DmAovOwH-114" vertex="1">
          <mxGeometry y="26" width="160" height="8" as="geometry" />
        </mxCell>
        <mxCell id="dILX5_WSjM38DmAovOwH-118" value="LoginView" style="swimlane;fontStyle=1;align=center;verticalAlign=top;childLayout=stackLayout;horizontal=1;startSize=26;horizontalStack=0;resizeParent=1;resizeParentMax=0;resizeLast=0;collapsible=1;marginBottom=0;whiteSpace=wrap;html=1;" parent="dILX5_WSjM38DmAovOwH-90" vertex="1">
          <mxGeometry x="757" y="179" width="160" height="34" as="geometry" />
        </mxCell>
        <mxCell id="dILX5_WSjM38DmAovOwH-119" value="" style="line;strokeWidth=1;fillColor=none;align=left;verticalAlign=middle;spacingTop=-1;spacingLeft=3;spacingRight=3;rotatable=0;labelPosition=right;points=[];portConstraint=eastwest;strokeColor=inherit;" parent="dILX5_WSjM38DmAovOwH-118" vertex="1">
          <mxGeometry y="26" width="160" height="8" as="geometry" />
        </mxCell>
        <mxCell id="dILX5_WSjM38DmAovOwH-120" value="CreateUserView" style="swimlane;fontStyle=1;align=center;verticalAlign=top;childLayout=stackLayout;horizontal=1;startSize=26;horizontalStack=0;resizeParent=1;resizeParentMax=0;resizeLast=0;collapsible=1;marginBottom=0;whiteSpace=wrap;html=1;" parent="dILX5_WSjM38DmAovOwH-90" vertex="1">
          <mxGeometry x="356" y="179" width="160" height="34" as="geometry" />
        </mxCell>
        <mxCell id="dILX5_WSjM38DmAovOwH-121" value="" style="line;strokeWidth=1;fillColor=none;align=left;verticalAlign=middle;spacingTop=-1;spacingLeft=3;spacingRight=3;rotatable=0;labelPosition=right;points=[];portConstraint=eastwest;strokeColor=inherit;" parent="dILX5_WSjM38DmAovOwH-120" vertex="1">
          <mxGeometry y="26" width="160" height="8" as="geometry" />
        </mxCell>
        <mxCell id="dILX5_WSjM38DmAovOwH-122" value="UserView" style="swimlane;fontStyle=1;align=center;verticalAlign=top;childLayout=stackLayout;horizontal=1;startSize=26;horizontalStack=0;resizeParent=1;resizeParentMax=0;resizeLast=0;collapsible=1;marginBottom=0;whiteSpace=wrap;html=1;" parent="dILX5_WSjM38DmAovOwH-90" vertex="1">
          <mxGeometry x="757" y="277" width="160" height="34" as="geometry" />
        </mxCell>
        <mxCell id="dILX5_WSjM38DmAovOwH-123" value="" style="line;strokeWidth=1;fillColor=none;align=left;verticalAlign=middle;spacingTop=-1;spacingLeft=3;spacingRight=3;rotatable=0;labelPosition=right;points=[];portConstraint=eastwest;strokeColor=inherit;" parent="dILX5_WSjM38DmAovOwH-122" vertex="1">
          <mxGeometry y="26" width="160" height="8" as="geometry" />
        </mxCell>
        <mxCell id="dILX5_WSjM38DmAovOwH-124" value="AccountView" style="swimlane;fontStyle=1;align=center;verticalAlign=top;childLayout=stackLayout;horizontal=1;startSize=26;horizontalStack=0;resizeParent=1;resizeParentMax=0;resizeLast=0;collapsible=1;marginBottom=0;whiteSpace=wrap;html=1;" parent="dILX5_WSjM38DmAovOwH-90" vertex="1">
          <mxGeometry x="154" y="440" width="160" height="34" as="geometry" />
        </mxCell>
        <mxCell id="dILX5_WSjM38DmAovOwH-125" value="" style="line;strokeWidth=1;fillColor=none;align=left;verticalAlign=middle;spacingTop=-1;spacingLeft=3;spacingRight=3;rotatable=0;labelPosition=right;points=[];portConstraint=eastwest;strokeColor=inherit;" parent="dILX5_WSjM38DmAovOwH-124" vertex="1">
          <mxGeometry y="26" width="160" height="8" as="geometry" />
        </mxCell>
        <mxCell id="dILX5_WSjM38DmAovOwH-126" value="WalletView" style="swimlane;fontStyle=1;align=center;verticalAlign=top;childLayout=stackLayout;horizontal=1;startSize=26;horizontalStack=0;resizeParent=1;resizeParentMax=0;resizeLast=0;collapsible=1;marginBottom=0;whiteSpace=wrap;html=1;" parent="dILX5_WSjM38DmAovOwH-90" vertex="1">
          <mxGeometry x="757" y="375" width="160" height="34" as="geometry" />
        </mxCell>
        <mxCell id="dILX5_WSjM38DmAovOwH-127" value="" style="line;strokeWidth=1;fillColor=none;align=left;verticalAlign=middle;spacingTop=-1;spacingLeft=3;spacingRight=3;rotatable=0;labelPosition=right;points=[];portConstraint=eastwest;strokeColor=inherit;" parent="dILX5_WSjM38DmAovOwH-126" vertex="1">
          <mxGeometry y="26" width="160" height="8" as="geometry" />
        </mxCell>
        <mxCell id="dILX5_WSjM38DmAovOwH-128" value="DepositView" style="swimlane;fontStyle=1;align=center;verticalAlign=top;childLayout=stackLayout;horizontal=1;startSize=26;horizontalStack=0;resizeParent=1;resizeParentMax=0;resizeLast=0;collapsible=1;marginBottom=0;whiteSpace=wrap;html=1;" parent="dILX5_WSjM38DmAovOwH-90" vertex="1">
          <mxGeometry x="154" y="309" width="160" height="34" as="geometry" />
        </mxCell>
        <mxCell id="dILX5_WSjM38DmAovOwH-129" value="" style="line;strokeWidth=1;fillColor=none;align=left;verticalAlign=middle;spacingTop=-1;spacingLeft=3;spacingRight=3;rotatable=0;labelPosition=right;points=[];portConstraint=eastwest;strokeColor=inherit;" parent="dILX5_WSjM38DmAovOwH-128" vertex="1">
          <mxGeometry y="26" width="160" height="8" as="geometry" />
        </mxCell>
        <mxCell id="dILX5_WSjM38DmAovOwH-130" value="WithdrawnView" style="swimlane;fontStyle=1;align=center;verticalAlign=top;childLayout=stackLayout;horizontal=1;startSize=26;horizontalStack=0;resizeParent=1;resizeParentMax=0;resizeLast=0;collapsible=1;marginBottom=0;whiteSpace=wrap;html=1;" parent="dILX5_WSjM38DmAovOwH-90" vertex="1">
          <mxGeometry x="757" y="472" width="160" height="34" as="geometry" />
        </mxCell>
        <mxCell id="dILX5_WSjM38DmAovOwH-131" value="" style="line;strokeWidth=1;fillColor=none;align=left;verticalAlign=middle;spacingTop=-1;spacingLeft=3;spacingRight=3;rotatable=0;labelPosition=right;points=[];portConstraint=eastwest;strokeColor=inherit;" parent="dILX5_WSjM38DmAovOwH-130" vertex="1">
          <mxGeometry y="26" width="160" height="8" as="geometry" />
        </mxCell>
        <mxCell id="dILX5_WSjM38DmAovOwH-134" value="BuyAndSellView" style="swimlane;fontStyle=1;align=center;verticalAlign=top;childLayout=stackLayout;horizontal=1;startSize=26;horizontalStack=0;resizeParent=1;resizeParentMax=0;resizeLast=0;collapsible=1;marginBottom=0;whiteSpace=wrap;html=1;" parent="dILX5_WSjM38DmAovOwH-90" vertex="1">
          <mxGeometry x="556" y="570" width="160" height="34" as="geometry" />
        </mxCell>
        <mxCell id="dILX5_WSjM38DmAovOwH-135" value="" style="line;strokeWidth=1;fillColor=none;align=left;verticalAlign=middle;spacingTop=-1;spacingLeft=3;spacingRight=3;rotatable=0;labelPosition=right;points=[];portConstraint=eastwest;strokeColor=inherit;" parent="dILX5_WSjM38DmAovOwH-134" vertex="1">
          <mxGeometry y="26" width="160" height="8" as="geometry" />
        </mxCell>
        <mxCell id="dILX5_WSjM38DmAovOwH-136" value="HistoryView" style="swimlane;fontStyle=1;align=center;verticalAlign=top;childLayout=stackLayout;horizontal=1;startSize=26;horizontalStack=0;resizeParent=1;resizeParentMax=0;resizeLast=0;collapsible=1;marginBottom=0;whiteSpace=wrap;html=1;" parent="dILX5_WSjM38DmAovOwH-90" vertex="1">
          <mxGeometry x="355" y="570" width="160" height="34" as="geometry" />
        </mxCell>
        <mxCell id="dILX5_WSjM38DmAovOwH-137" value="" style="line;strokeWidth=1;fillColor=none;align=left;verticalAlign=middle;spacingTop=-1;spacingLeft=3;spacingRight=3;rotatable=0;labelPosition=right;points=[];portConstraint=eastwest;strokeColor=inherit;" parent="dILX5_WSjM38DmAovOwH-136" vertex="1">
          <mxGeometry y="26" width="160" height="8" as="geometry" />
        </mxCell>
        <mxCell id="dILX5_WSjM38DmAovOwH-140" value="FiatTransferView" style="swimlane;fontStyle=1;align=center;verticalAlign=top;childLayout=stackLayout;horizontal=1;startSize=26;horizontalStack=0;resizeParent=1;resizeParentMax=0;resizeLast=0;collapsible=1;marginBottom=0;whiteSpace=wrap;html=1;" parent="dILX5_WSjM38DmAovOwH-90" vertex="1">
          <mxGeometry x="154" y="570" width="160" height="34" as="geometry" />
        </mxCell>
        <mxCell id="dILX5_WSjM38DmAovOwH-141" value="" style="line;strokeWidth=1;fillColor=none;align=left;verticalAlign=middle;spacingTop=-1;spacingLeft=3;spacingRight=3;rotatable=0;labelPosition=right;points=[];portConstraint=eastwest;strokeColor=inherit;" parent="dILX5_WSjM38DmAovOwH-140" vertex="1">
          <mxGeometry y="26" width="160" height="8" as="geometry" />
        </mxCell>
        <mxCell id="dILX5_WSjM38DmAovOwH-142" value="CryptoTransferView" style="swimlane;fontStyle=1;align=center;verticalAlign=top;childLayout=stackLayout;horizontal=1;startSize=26;horizontalStack=0;resizeParent=1;resizeParentMax=0;resizeLast=0;collapsible=1;marginBottom=0;whiteSpace=wrap;html=1;" parent="dILX5_WSjM38DmAovOwH-90" vertex="1">
          <mxGeometry x="154" y="179" width="160" height="34" as="geometry" />
        </mxCell>
        <mxCell id="dILX5_WSjM38DmAovOwH-143" value="" style="line;strokeWidth=1;fillColor=none;align=left;verticalAlign=middle;spacingTop=-1;spacingLeft=3;spacingRight=3;rotatable=0;labelPosition=right;points=[];portConstraint=eastwest;strokeColor=inherit;" parent="dILX5_WSjM38DmAovOwH-142" vertex="1">
          <mxGeometry y="26" width="160" height="8" as="geometry" />
        </mxCell>
        <mxCell id="dILX5_WSjM38DmAovOwH-148" style="edgeStyle=orthogonalEdgeStyle;rounded=0;orthogonalLoop=1;jettySize=auto;html=1;exitX=1;exitY=0.5;exitDx=0;exitDy=0;entryX=0;entryY=0.5;entryDx=0;entryDy=0;fontSize=12;startSize=8;endSize=8;startArrow=block;startFill=0;endArrow=none;endFill=0;" parent="dILX5_WSjM38DmAovOwH-90" source="dILX5_WSjM38DmAovOwH-105" target="dILX5_WSjM38DmAovOwH-122" edge="1">
          <mxGeometry relative="1" as="geometry" />
        </mxCell>
        <mxCell id="dILX5_WSjM38DmAovOwH-149" style="edgeStyle=orthogonalEdgeStyle;rounded=0;orthogonalLoop=1;jettySize=auto;html=1;exitX=1;exitY=0.5;exitDx=0;exitDy=0;entryX=0;entryY=0.5;entryDx=0;entryDy=0;fontSize=12;startSize=8;endSize=8;startArrow=block;startFill=0;endArrow=none;endFill=0;" parent="dILX5_WSjM38DmAovOwH-90" source="dILX5_WSjM38DmAovOwH-105" target="dILX5_WSjM38DmAovOwH-126" edge="1">
          <mxGeometry relative="1" as="geometry" />
        </mxCell>
        <mxCell id="dILX5_WSjM38DmAovOwH-150" style="edgeStyle=orthogonalEdgeStyle;rounded=0;orthogonalLoop=1;jettySize=auto;html=1;exitX=1;exitY=0.5;exitDx=0;exitDy=0;entryX=0;entryY=0.5;entryDx=0;entryDy=0;fontSize=12;startSize=8;endSize=8;startArrow=block;startFill=0;endArrow=none;endFill=0;" parent="dILX5_WSjM38DmAovOwH-90" source="dILX5_WSjM38DmAovOwH-105" target="dILX5_WSjM38DmAovOwH-130" edge="1">
          <mxGeometry relative="1" as="geometry" />
        </mxCell>
        <mxCell id="dILX5_WSjM38DmAovOwH-92" value="&lt;i&gt;&amp;lt;&amp;lt;interface&amp;gt;&amp;gt;&lt;/i&gt;&lt;div&gt;View&lt;/div&gt;" style="swimlane;fontStyle=0;childLayout=stackLayout;horizontal=1;startSize=34;fillColor=none;horizontalStack=0;resizeParent=1;resizeParentMax=0;resizeLast=0;collapsible=1;marginBottom=0;whiteSpace=wrap;html=1;" parent="dILX5_WSjM38DmAovOwH-90" vertex="1">
          <mxGeometry x="362" y="307" width="140" height="164" as="geometry" />
        </mxCell>
        <mxCell id="dILX5_WSjM38DmAovOwH-93" value="+ startView()" style="text;strokeColor=none;fillColor=none;align=left;verticalAlign=top;spacingLeft=4;spacingRight=4;overflow=hidden;rotatable=0;points=[[0,0.5],[1,0.5]];portConstraint=eastwest;whiteSpace=wrap;html=1;" parent="dILX5_WSjM38DmAovOwH-92" vertex="1">
          <mxGeometry y="34" width="140" height="26" as="geometry" />
        </mxCell>
        <mxCell id="dILX5_WSjM38DmAovOwH-94" value="+ process()" style="text;strokeColor=none;fillColor=none;align=left;verticalAlign=top;spacingLeft=4;spacingRight=4;overflow=hidden;rotatable=0;points=[[0,0.5],[1,0.5]];portConstraint=eastwest;whiteSpace=wrap;html=1;" parent="dILX5_WSjM38DmAovOwH-92" vertex="1">
          <mxGeometry y="60" width="140" height="26" as="geometry" />
        </mxCell>
        <mxCell id="dILX5_WSjM38DmAovOwH-95" value="+ update()" style="text;strokeColor=none;fillColor=none;align=left;verticalAlign=top;spacingLeft=4;spacingRight=4;overflow=hidden;rotatable=0;points=[[0,0.5],[1,0.5]];portConstraint=eastwest;whiteSpace=wrap;html=1;" parent="dILX5_WSjM38DmAovOwH-92" vertex="1">
          <mxGeometry y="86" width="140" height="26" as="geometry" />
        </mxCell>
        <mxCell id="dILX5_WSjM38DmAovOwH-96" value="+ view()" style="text;strokeColor=none;fillColor=none;align=left;verticalAlign=top;spacingLeft=4;spacingRight=4;overflow=hidden;rotatable=0;points=[[0,0.5],[1,0.5]];portConstraint=eastwest;whiteSpace=wrap;html=1;" parent="dILX5_WSjM38DmAovOwH-92" vertex="1">
          <mxGeometry y="112" width="140" height="26" as="geometry" />
        </mxCell>
        <mxCell id="dILX5_WSjM38DmAovOwH-97" value="+ exit(): Boolean" style="text;strokeColor=none;fillColor=none;align=left;verticalAlign=top;spacingLeft=4;spacingRight=4;overflow=hidden;rotatable=0;points=[[0,0.5],[1,0.5]];portConstraint=eastwest;whiteSpace=wrap;html=1;" parent="dILX5_WSjM38DmAovOwH-92" vertex="1">
          <mxGeometry y="138" width="140" height="26" as="geometry" />
        </mxCell>
        <mxCell id="hUwqi0uTFEetl4gtfKUe-10" value="PixService" style="swimlane;fontStyle=1;align=center;verticalAlign=top;childLayout=stackLayout;horizontal=1;startSize=26;horizontalStack=0;resizeParent=1;resizeParentMax=0;resizeLast=0;collapsible=1;marginBottom=0;whiteSpace=wrap;html=1;" parent="1" vertex="1">
          <mxGeometry x="2175" y="347" width="341" height="74" as="geometry" />
        </mxCell>
        <mxCell id="hUwqi0uTFEetl4gtfKUe-11" value="" style="line;strokeWidth=1;fillColor=none;align=left;verticalAlign=middle;spacingTop=-1;spacingLeft=3;spacingRight=3;rotatable=0;labelPosition=right;points=[];portConstraint=eastwest;strokeColor=inherit;" parent="hUwqi0uTFEetl4gtfKUe-10" vertex="1">
          <mxGeometry y="26" width="341" height="8" as="geometry" />
        </mxCell>
        <mxCell id="hUwqi0uTFEetl4gtfKUe-12" value="+ transfer(document: String, currency: Currency, amount: Double): Boolean" style="text;strokeColor=none;fillColor=none;align=left;verticalAlign=top;spacingLeft=4;spacingRight=4;overflow=hidden;rotatable=0;points=[[0,0.5],[1,0.5]];portConstraint=eastwest;whiteSpace=wrap;html=1;fontStyle=4" parent="hUwqi0uTFEetl4gtfKUe-10" vertex="1">
          <mxGeometry y="34" width="341" height="40" as="geometry" />
        </mxCell>
        <mxCell id="hUwqi0uTFEetl4gtfKUe-14" style="edgeStyle=orthogonalEdgeStyle;rounded=0;orthogonalLoop=1;jettySize=auto;html=1;exitX=1;exitY=0.5;exitDx=0;exitDy=0;entryX=0;entryY=0.5;entryDx=0;entryDy=0;" parent="1" source="dILX5_WSjM38DmAovOwH-31" target="hUwqi0uTFEetl4gtfKUe-12" edge="1">
          <mxGeometry relative="1" as="geometry" />
        </mxCell>
      </root>
    </mxGraphModel>
  </diagram>
</mxfile>
